<svg width="336" height="490" viewBox="0 0 336 490" fill="none" xmlns="http://www.w3.org/2000/svg">
<g clip-path="url(#clip0_670_13956)">
<path d="M145 168.586C151.627 168.639 156.957 174.054 156.904 180.681L155.872 310C155.819 316.628 150.404 321.957 143.777 321.904L11.9997 320.854C5.37248 320.801 0.042875 315.385 0.0957638 308.758L1.22356 167.44C0.701969 102.151 31.0288 51.8991 73.5676 7.59807C77.7765 3.21473 84.6248 2.83832 89.3909 6.60839L111.346 23.9756C116.709 28.2172 117.416 36.0586 113.228 41.4626C86.6453 75.7613 73.1033 114.116 75.5952 157.468C75.9429 163.517 81.0618 168.077 87.1206 168.126L145 168.586Z" fill="#0A4991"/>
<path d="M264.814 482.335C260.639 486.755 253.79 487.186 248.993 483.451L226.844 466.203C221.452 462.005 220.683 454.173 224.825 448.738C251.181 414.154 264.437 375.603 261.589 332.177C261.192 326.131 256.038 321.611 249.978 321.611H192C185.373 321.611 180 316.239 180 309.611V180C180 173.373 185.373 168 192 168H323.974C330.601 168 335.974 173.373 335.974 180V321.611C337.018 387.018 307.051 437.609 264.814 482.335Z" fill="#0A4991"/>
<path d="M165.904 18.4H159.832V27.016H165.904C171.496 27.016 171.496 18.4 165.904 18.4ZM165.904 28.192H159.832V34H158.536V17.2C160.984 17.2 163.456 17.2 165.904 17.2C173.2 17.2 173.2 28.192 165.904 28.192ZM183.732 22.144H184.908C184.908 26.104 184.908 30.04 184.908 34H183.732V31.48C182.58 33.328 180.804 34.192 178.884 34.192C175.572 34.192 172.86 31.696 172.86 28.072C172.86 24.448 175.572 22 178.884 22C180.804 22 182.748 22.888 183.732 24.736V22.144ZM178.884 23.128C176.196 23.128 174.036 25.096 174.036 28.072C174.036 31.048 176.196 33.04 178.884 33.04C185.484 33.04 185.484 23.128 178.884 23.128ZM188.109 22.144H189.213L189.261 24.256C190.005 22.648 191.685 22.024 193.197 22.024C194.085 22 194.949 22.24 195.741 22.72L195.213 23.68C194.589 23.296 193.893 23.128 193.197 23.128C190.989 23.152 189.285 24.928 189.285 27.088V34H188.109V22.144ZM199.818 18.688L200.97 18.568V22.144H205.002V23.128H200.97V30.352C200.97 31.96 201.306 33.088 203.154 33.088C203.73 33.088 204.378 32.896 204.978 32.608L205.386 33.568C204.642 33.928 203.898 34.168 203.154 34.168C200.634 34.168 199.818 32.68 199.818 30.352V23.128H197.298V22.144H199.818V18.688ZM207.703 22.144H208.855V24.256C209.767 22.624 211.423 21.952 213.079 21.928C216.247 21.928 218.431 23.872 218.431 27.16V34H217.255V27.184C217.255 24.496 215.599 23.056 213.031 23.08C210.583 23.104 208.879 24.952 208.879 27.4V34H207.703V22.144ZM226.86 34.168C223.524 34.168 220.836 31.84 220.836 28.072C220.836 24.52 223.524 21.952 226.86 21.952C230.196 21.952 233.172 23.992 232.716 28.624H222.036C222.276 31.408 224.412 33.016 226.86 33.016C228.42 33.016 230.244 32.392 231.132 31.216L231.972 31.888C230.82 33.4 228.756 34.168 226.86 34.168ZM222.036 27.592H231.66C231.636 24.664 229.716 23.032 226.86 23.032C224.412 23.032 222.3 24.688 222.036 27.592ZM235.758 22.144H236.862L236.91 24.256C237.654 22.648 239.334 22.024 240.846 22.024C241.734 22 242.598 22.24 243.39 22.72L242.862 23.68C242.238 23.296 241.542 23.128 240.846 23.128C238.638 23.152 236.934 24.928 236.934 27.088V34H235.758V22.144ZM246.332 22.096V34H245.156V22.096H246.332ZM244.82 18.28C244.82 19.528 246.716 19.528 246.716 18.28C246.716 17.032 244.82 17.032 244.82 18.28ZM249.703 22.144H250.855V24.256C251.767 22.624 253.423 21.952 255.079 21.928C258.247 21.928 260.431 23.872 260.431 27.16V34H259.255V27.184C259.255 24.496 257.599 23.056 255.031 23.08C252.583 23.104 250.879 24.952 250.879 27.4V34H249.703V22.144ZM271.884 23.008L273.036 21.664L273.804 22.336L272.652 23.68C273.492 24.592 274.116 25.792 274.116 27.712C274.116 29.776 272.892 31.864 270.924 32.752C273.012 33.496 274.164 34.96 274.164 37C274.164 40.192 271.668 41.728 268.523 41.728C265.38 41.728 262.908 40 262.908 37H264.084C264.084 39.424 266.148 40.576 268.523 40.576C270.9 40.576 273.012 39.52 273.012 37C273.012 34.456 270.732 33.448 268.523 33.448C265.092 33.448 262.956 30.88 262.956 27.712C262.956 24.016 265.452 21.928 268.523 21.928C269.724 21.928 270.972 22.36 271.884 23.008ZM268.523 23.104C266.1 23.104 264.132 24.616 264.132 27.712C264.132 30.16 265.812 32.272 268.523 32.272C270.972 32.272 272.964 30.16 272.964 27.712C272.964 24.712 270.972 23.104 268.523 23.104ZM165.904 60.4H159.832V69.016H165.904C171.496 69.016 171.496 60.4 165.904 60.4ZM165.904 70.192H159.832V76H158.536V59.2C160.984 59.2 163.456 59.2 165.904 59.2C173.2 59.2 173.2 70.192 165.904 70.192ZM173.508 64.144H174.612L174.66 66.256C175.404 64.648 177.084 64.024 178.596 64.024C179.484 64 180.348 64.24 181.14 64.72L180.612 65.68C179.988 65.296 179.292 65.128 178.596 65.128C176.388 65.152 174.684 66.928 174.684 69.088V76H173.508V64.144ZM188.378 76.168C185.042 76.168 182.354 73.864 182.354 70.096C182.354 66.328 185.042 63.928 188.378 63.928C191.714 63.928 194.402 66.328 194.402 70.096C194.402 73.864 191.714 76.168 188.378 76.168ZM188.378 75.016C191.066 75.016 193.25 73.168 193.25 70.096C193.25 67.024 191.066 65.032 188.378 65.032C185.69 65.032 183.506 67.024 183.506 70.096C183.506 73.168 185.69 75.016 188.378 75.016ZM205.485 65.008L206.637 63.664L207.405 64.336L206.253 65.68C207.093 66.592 207.717 67.792 207.717 69.712C207.717 71.776 206.493 73.864 204.525 74.752C206.613 75.496 207.765 76.96 207.765 79C207.765 82.192 205.269 83.728 202.125 83.728C198.981 83.728 196.509 82 196.509 79H197.685C197.685 81.424 199.749 82.576 202.125 82.576C204.501 82.576 206.613 81.52 206.613 79C206.613 76.456 204.333 75.448 202.125 75.448C198.693 75.448 196.557 72.88 196.557 69.712C196.557 66.016 199.053 63.928 202.125 63.928C203.325 63.928 204.573 64.36 205.485 65.008ZM202.125 65.104C199.701 65.104 197.733 66.616 197.733 69.712C197.733 72.16 199.413 74.272 202.125 74.272C204.573 74.272 206.565 72.16 206.565 69.712C206.565 66.712 204.573 65.104 202.125 65.104ZM210.14 64.144H211.244L211.292 66.256C212.036 64.648 213.716 64.024 215.228 64.024C216.116 64 216.98 64.24 217.772 64.72L217.244 65.68C216.62 65.296 215.924 65.128 215.228 65.128C213.02 65.152 211.316 66.928 211.316 69.088V76H210.14V64.144ZM224.891 76.168C221.555 76.168 218.867 73.84 218.867 70.072C218.867 66.52 221.555 63.952 224.891 63.952C228.227 63.952 231.203 65.992 230.747 70.624H220.067C220.307 73.408 222.443 75.016 224.891 75.016C226.451 75.016 228.275 74.392 229.163 73.216L230.003 73.888C228.851 75.4 226.787 76.168 224.891 76.168ZM220.067 69.592H229.691C229.667 66.664 227.747 65.032 224.891 65.032C222.443 65.032 220.331 66.688 220.067 69.592ZM242.645 65.536L241.925 66.304C240.725 65.248 239.549 65.056 238.229 65.056C236.381 65.032 234.605 65.728 234.653 67.24C234.701 68.824 236.765 69.136 238.253 69.4C240.365 69.76 243.269 70.12 243.149 72.88C243.077 75.496 240.365 76.192 238.277 76.192C236.189 76.192 234.125 75.4 233.093 73.816L233.957 73.048C234.941 74.464 236.717 75.064 238.301 75.064C239.741 75.064 241.925 74.68 241.997 72.808C242.045 71.104 240.077 70.768 238.133 70.456C235.829 70.072 233.549 69.64 233.525 67.264C233.501 64.936 235.829 63.928 238.229 63.952C239.957 63.952 241.469 64.432 242.645 65.536ZM254.621 65.536L253.901 66.304C252.701 65.248 251.525 65.056 250.205 65.056C248.357 65.032 246.581 65.728 246.629 67.24C246.677 68.824 248.741 69.136 250.229 69.4C252.341 69.76 255.245 70.12 255.125 72.88C255.053 75.496 252.341 76.192 250.253 76.192C248.165 76.192 246.101 75.4 245.069 73.816L245.933 73.048C246.917 74.464 248.693 75.064 250.277 75.064C251.717 75.064 253.901 74.68 253.973 72.808C254.021 71.104 252.053 70.768 250.109 70.456C247.805 70.072 245.525 69.64 245.501 67.264C245.477 64.936 247.805 63.928 250.205 63.952C251.933 63.952 253.445 64.432 254.621 65.536ZM257.502 75.28C257.502 74.032 259.398 74.032 259.398 75.28C259.398 75.424 259.374 75.544 259.326 75.688L258.366 78.136H257.334L258.078 76.144C257.766 76.024 257.502 75.736 257.502 75.28ZM159.856 110.032V116.752H165.448C167.56 116.752 170.272 116.248 170.272 113.584C170.248 110.968 167.872 110.032 165.616 110.032C163.6 110.032 161.872 110.032 159.856 110.032ZM159.856 102.304V108.808H165.616C167.632 108.808 169.744 108.184 169.744 105.784C169.744 103.336 167.536 102.304 165.448 102.304H159.856ZM165.448 101.2C168.28 101.2 170.968 102.592 170.968 105.784C170.968 107.512 169.912 108.856 168.232 109.384C170.344 109.96 171.544 111.664 171.544 113.608C171.544 117.064 168.328 118 165.448 118C163 118 161.008 118 158.56 118V101.2C160.984 101.2 163 101.2 165.448 101.2ZM185.126 118H183.974V115.864C183.062 117.496 181.406 118.168 179.75 118.192C176.582 118.192 174.398 116.248 174.398 112.96V106.12H175.574V112.936C175.574 115.624 177.23 117.064 179.798 117.04C182.246 117.016 183.95 115.168 183.95 112.72V106.12H185.126V118ZM189.402 106.096V118H188.226V106.096H189.402ZM187.89 102.28C187.89 103.528 189.786 103.528 189.786 102.28C189.786 101.032 187.89 101.032 187.89 102.28ZM192.773 101.2H193.949V118H192.773V101.2ZM202.578 107.08C199.914 107.08 197.73 108.736 197.73 112.072C197.73 115.36 199.914 117.04 202.578 117.04C205.362 117.04 207.426 115 207.426 112.048C207.426 109.096 205.314 107.08 202.578 107.08ZM207.45 101.2H208.602V118H207.45V115.384C206.466 117.184 204.522 118.192 202.506 118.192C199.194 118.192 196.578 116.008 196.578 112.072C196.578 108.16 199.218 105.952 202.53 105.952C204.57 105.952 206.49 106.816 207.45 108.736V101.2ZM213.168 106.096V118H211.992V106.096H213.168ZM211.656 102.28C211.656 103.528 213.552 103.528 213.552 102.28C213.552 101.032 211.656 101.032 211.656 102.28ZM216.539 106.144H217.691V108.256C218.603 106.624 220.259 105.952 221.915 105.928C225.083 105.928 227.267 107.872 227.267 111.16V118H226.091V111.184C226.091 108.496 224.435 107.056 221.867 107.08C219.419 107.104 217.715 108.952 217.715 111.4V118H216.539V106.144ZM238.719 107.008L239.871 105.664L240.639 106.336L239.487 107.68C240.327 108.592 240.951 109.792 240.951 111.712C240.951 113.776 239.727 115.864 237.759 116.752C239.847 117.496 240.999 118.96 240.999 121C240.999 124.192 238.503 125.728 235.359 125.728C232.215 125.728 229.743 124 229.743 121H230.919C230.919 123.424 232.983 124.576 235.359 124.576C237.735 124.576 239.847 123.52 239.847 121C239.847 118.456 237.567 117.448 235.359 117.448C231.927 117.448 229.791 114.88 229.791 111.712C229.791 108.016 232.287 105.928 235.359 105.928C236.559 105.928 237.807 106.36 238.719 107.008ZM235.359 107.104C232.935 107.104 230.967 108.616 230.967 111.712C230.967 114.16 232.647 116.272 235.359 116.272C237.807 116.272 239.799 114.16 239.799 111.712C239.799 108.712 237.807 107.104 235.359 107.104ZM251.496 102.496V109.192H261.168V110.416H251.496V118.024H250.2V101.2H261.504V102.496H251.496ZM274.844 118H273.692V115.864C272.78 117.496 271.124 118.168 269.468 118.192C266.3 118.192 264.116 116.248 264.116 112.96V106.12H265.292V112.936C265.292 115.624 266.948 117.064 269.516 117.04C271.964 117.016 273.668 115.168 273.668 112.72V106.12H274.844V118ZM279.505 102.688L280.657 102.568V106.144H284.689V107.128H280.657V114.352C280.657 115.96 280.993 117.088 282.841 117.088C283.417 117.088 284.065 116.896 284.665 116.608L285.073 117.568C284.329 117.928 283.585 118.168 282.841 118.168C280.321 118.168 279.505 116.68 279.505 114.352V107.128H276.985V106.144H279.505V102.688ZM298.094 118H296.942V115.864C296.03 117.496 294.374 118.168 292.718 118.192C289.55 118.192 287.366 116.248 287.366 112.96V106.12H288.542V112.936C288.542 115.624 290.198 117.064 292.766 117.04C295.214 117.016 296.918 115.168 296.918 112.72V106.12H298.094V118ZM301.195 106.144H302.299L302.347 108.256C303.091 106.648 304.771 106.024 306.283 106.024C307.171 106 308.035 106.24 308.827 106.72L308.299 107.68C307.675 107.296 306.979 107.128 306.283 107.128C304.075 107.152 302.371 108.928 302.371 111.088V118H301.195V106.144ZM315.945 118.168C312.609 118.168 309.921 115.84 309.921 112.072C309.921 108.52 312.609 105.952 315.945 105.952C319.281 105.952 322.257 107.992 321.801 112.624H311.121C311.361 115.408 313.497 117.016 315.945 117.016C317.505 117.016 319.329 116.392 320.217 115.216L321.057 115.888C319.905 117.4 317.841 118.168 315.945 118.168ZM311.121 111.592H320.745C320.721 108.664 318.801 107.032 315.945 107.032C313.497 107.032 311.385 108.688 311.121 111.592ZM333.699 107.536L332.979 108.304C331.779 107.248 330.603 107.056 329.283 107.056C327.435 107.032 325.659 107.728 325.707 109.24C325.755 110.824 327.819 111.136 329.307 111.4C331.419 111.76 334.323 112.12 334.203 114.88C334.131 117.496 331.419 118.192 329.331 118.192C327.243 118.192 325.179 117.4 324.147 115.816L325.011 115.048C325.995 116.464 327.771 117.064 329.355 117.064C330.795 117.064 332.979 116.68 333.051 114.808C333.099 113.104 331.131 112.768 329.187 112.456C326.883 112.072 324.603 111.64 324.579 109.264C324.555 106.936 326.883 105.928 329.283 105.952C331.011 105.952 332.523 106.432 333.699 107.536Z" fill="#707070"/>
</g>
<defs>
<clipPath id="clip0_670_13956">
<rect width="336" height="490" fill="white"/>
</clipPath>
</defs>
</svg>
