<svg width="1440" height="1954" viewBox="0 0 1440 1954" fill="none" xmlns="http://www.w3.org/2000/svg">
<rect width="1440" height="1954" fill="white"/>
<line y1="97.5" x2="1440" y2="97.5" stroke="black" stroke-opacity="0.1"/>
<line y1="213.5" x2="1440" y2="213.5" stroke="black" stroke-opacity="0.1"/>
<line y1="329.5" x2="1440" y2="329.5" stroke="black" stroke-opacity="0.1"/>
<line y1="445.5" x2="1440" y2="445.5" stroke="black" stroke-opacity="0.1"/>
<line y1="561.5" x2="1440" y2="561.5" stroke="black" stroke-opacity="0.1"/>
<line y1="677.5" x2="1440" y2="677.5" stroke="black" stroke-opacity="0.1"/>
<line y1="793.5" x2="1440" y2="793.5" stroke="black" stroke-opacity="0.1"/>
<line y1="909.5" x2="1440" y2="909.5" stroke="black" stroke-opacity="0.1"/>
<line y1="1025.5" x2="1440" y2="1025.5" stroke="black" stroke-opacity="0.1"/>
<line y1="1141.5" x2="1440" y2="1141.5" stroke="black" stroke-opacity="0.1"/>
<line y1="1257.5" x2="1440" y2="1257.5" stroke="black" stroke-opacity="0.1"/>
<line y1="1373.5" x2="1440" y2="1373.5" stroke="black" stroke-opacity="0.1"/>
<line y1="1489.5" x2="1440" y2="1489.5" stroke="black" stroke-opacity="0.1"/>
<line y1="1605.5" x2="1440" y2="1605.5" stroke="black" stroke-opacity="0.1"/>
<line y1="1721.5" x2="1440" y2="1721.5" stroke="black" stroke-opacity="0.1"/>
<line y1="1837.5" x2="1440" y2="1837.5" stroke="black" stroke-opacity="0.1"/>
<line y1="1953.5" x2="1440" y2="1953.5" stroke="black" stroke-opacity="0.1"/>
<path d="M364.002 468.574C364.002 468.574 582.979 347.316 725.827 376.943C856.605 404.066 1004.6 574.46 1004.6 574.46" stroke="black" stroke-opacity="0.22" stroke-width="5" stroke-dasharray="13 13"/>
<path d="M328.798 1200.82C328.798 1200.82 383.495 958.424 499.742 870.287C606.169 789.596 830.126 788.206 830.126 788.206" stroke="black" stroke-opacity="0.22" stroke-width="5" stroke-dasharray="13 13"/>
<path d="M406.002 1255.01C406.002 1255.01 654.283 1167.9 805.753 1217.57C944.426 1263.03 1087.87 1451.32 1087.87 1451.32" stroke="black" stroke-opacity="0.22" stroke-width="5" stroke-dasharray="13 13"/>
<g filter="url(#filter0_d_669_13911)">
<g clip-path="url(#clip0_669_13911)">
<rect x="729" y="623" width="456.89" height="462.66" rx="27" transform="rotate(-30 729 623)" fill="white"/>
<rect x="806" y="682" width="386" height="335.32" rx="24" transform="rotate(-30 806 682)" fill="#E6ECFD"/>
<path d="M925.498 705.921L918.088 710.278C915.337 709.564 912.882 708.258 910.722 706.361C908.588 704.449 906.83 702.316 905.446 699.962C901.903 693.937 900.795 688.324 902.123 683.124L909.532 678.767C912.257 679.496 914.7 680.81 916.86 682.707C919.004 684.578 920.76 686.677 922.129 689.005C925.717 695.108 926.84 700.747 925.498 705.921ZM910.252 684.608L906.916 686.57C907.146 689.566 908.318 692.862 910.432 696.457C912.545 700.051 914.888 702.763 917.46 704.592L920.874 702.585C920.313 699.086 919.029 695.63 917.022 692.216C915.015 688.803 912.758 686.267 910.252 684.608ZM929.857 698.138L926.788 675.251L926.512 675.048L919.723 679.039L916.986 674.384L925.365 669.458C928.178 669.092 930.2 669.956 931.431 672.051C932.1 673.189 932.576 674.649 932.859 676.432C932.962 676.963 933.046 677.401 933.11 677.746C933.173 678.091 933.249 678.604 933.335 679.284C933.406 679.938 933.466 680.425 933.515 680.744C933.668 682.011 933.802 683.185 933.916 684.267L935.078 694.233L941.866 690.242L944.512 694.742L932.137 702.017L929.857 698.138Z" fill="#48548B"/>
<path d="M944.304 778.68L940.875 780.66L930.39 762.499L943.458 754.954L945.363 758.254L935.724 763.819L938.589 768.781L947.708 763.516L949.538 766.686L940.419 771.951L944.304 778.68ZM959.746 755.042L958.83 753.215L961.87 751.46L969.265 764.269L966.277 765.994L965.041 764.213C965.184 766.14 963.603 768.022 962.19 768.873C958.411 771.089 954.255 770.371 951.66 765.876C949.11 761.46 950.711 757.452 954.467 755.318C956.182 754.328 958.284 754.189 959.746 755.042ZM956.388 757.985C954.284 759.2 953.42 761.604 954.83 764.046C956.24 766.489 958.769 766.968 960.873 765.753C965.862 762.873 961.377 755.105 956.388 757.985ZM975.452 745.385L974.885 748.484C973.481 748.151 972.277 748.465 971.056 749.17C969.549 750.04 968.988 750.988 969.453 751.794C969.933 752.625 970.956 752.658 972.653 751.816C975.159 750.577 978.54 749.353 980.505 752.756C981.81 755.017 981.09 758.03 977.427 760.145C975.4 761.315 973.179 762.148 970.183 761.279L970.437 758.119C971.931 758.607 974.445 758.16 975.889 757.361C977.099 756.697 977.856 755.429 977.316 754.493C976.806 753.61 975.869 753.666 973.99 754.612C971.469 755.826 968.075 756.607 966.395 753.697C964.685 750.736 967.151 747.926 969.489 746.576C971.489 745.421 973.221 744.941 975.452 745.385ZM976.726 738.518L979.7 736.351L981.8 739.988L985.334 737.948L986.909 740.676L983.349 742.731L986.544 748.265C987.249 749.486 988.27 749.693 989.257 749.123C989.751 748.838 990.232 748.353 990.565 747.849L993.008 750.041C992.309 750.93 991.646 751.52 990.699 752.101C987.979 753.81 985.246 753.275 983.401 750.08L980.206 744.546L977.815 745.926L976.24 743.198L978.631 741.818L976.726 738.518ZM1004.75 736.75L994.746 742.525C995.869 743.99 997.906 744.338 1000.14 743.048C1001.31 742.373 1002.59 741.046 1002.88 739.873L1006.06 740.704C1005.52 742.887 1003.7 744.837 1001.75 745.962C997.336 748.512 993.137 747.299 990.767 743.194C988.517 739.297 989.547 734.961 993.704 732.561C997.991 730.086 1002.2 731.191 1004.75 736.75ZM993.283 739.871L1000.19 735.881C999.026 734.338 997.247 734.257 995.428 735.307C993.713 736.297 992.79 737.938 993.283 739.871ZM1002.84 727.806L1005.78 726.111L1006.87 727.457C1006.94 725.302 1008.13 724.303 1009.43 723.553C1010.75 722.788 1012.32 722.573 1013.43 722.869L1013.59 726.448C1012.63 726.277 1011.87 726.337 1010.83 726.937C1009.16 727.897 1008.14 729.665 1009.51 732.029L1013.41 738.784L1010.24 740.614L1002.84 727.806ZM1033.47 722.248L1036.8 723.096C1036.16 725.406 1034.93 726.878 1033.03 727.973C1029.32 730.118 1024.93 729.668 1022.31 725.122C1019.68 720.575 1021.49 716.556 1025.2 714.411C1027.02 713.361 1028.72 713.07 1030.92 713.637L1030.14 716.897C1028.99 716.656 1027.86 716.859 1026.98 717.369C1024.85 718.599 1024.19 721.057 1025.48 723.292C1026.89 725.734 1029.3 726.073 1031.28 724.933C1032.29 724.348 1033.14 723.477 1033.47 722.248ZM1042.81 707.083L1041.9 705.256L1044.94 703.501L1052.33 716.31L1049.34 718.035L1048.11 716.254C1048.25 718.181 1046.67 720.063 1045.26 720.914C1041.48 723.13 1037.32 722.412 1034.73 717.917C1032.18 713.501 1033.78 709.493 1037.53 707.359C1039.25 706.369 1041.35 706.23 1042.81 707.083ZM1039.46 710.026C1037.35 711.241 1036.49 713.645 1037.9 716.087C1039.31 718.53 1041.84 719.009 1043.94 717.794C1048.93 714.914 1044.44 707.146 1039.46 710.026ZM1066.71 708.01L1063.54 709.84L1059.58 702.981C1058.6 701.292 1056.84 700.269 1055.09 701.274C1053.38 702.264 1053.25 704.382 1054.23 706.071L1058.19 712.93L1055.02 714.76L1047.61 701.925L1050.54 700.23L1051.68 701.654C1051.6 699.965 1052.81 698.642 1054.03 697.937C1055.57 697.052 1057.46 696.791 1059.21 698.138C1059.3 695.659 1060.48 694.284 1062.14 693.324C1065.78 691.224 1068.86 692.424 1071.08 696.269L1075.07 703.18L1071.9 705.01L1067.91 698.099C1066.94 696.41 1065.41 695.386 1063.7 696.376C1061.98 697.366 1061.77 699.462 1062.75 701.151L1066.71 708.01ZM1083.56 694.61C1085.71 693.365 1086.25 690.873 1085.09 688.873C1083.94 686.872 1081.64 686.015 1079.36 687.335C1077.07 688.655 1076.67 691.072 1077.82 693.073C1078.98 695.073 1081.4 695.855 1083.56 694.61ZM1084.31 704.981L1081.14 706.811L1070.66 688.65L1073.62 686.94L1074.85 688.587C1075.01 686.588 1076.37 684.975 1077.82 684.135C1081.77 681.855 1086.09 683.275 1088.26 687.043C1090.42 690.784 1089.77 695.111 1085.67 697.481C1084.31 698.261 1082.07 699 1080.35 698.122L1084.31 704.981ZM1097.97 675.237L1097.06 673.41L1100.1 671.655L1107.49 684.464L1104.5 686.189L1103.27 684.408C1103.41 686.335 1101.83 688.218 1100.42 689.069C1096.64 691.285 1092.48 690.566 1089.89 686.072C1087.34 681.655 1088.94 677.648 1092.69 675.514C1094.41 674.524 1096.51 674.384 1097.97 675.237ZM1094.61 678.181C1092.51 679.396 1091.65 681.799 1093.06 684.242C1094.47 686.684 1096.99 687.164 1099.1 685.949C1104.09 683.069 1099.6 675.301 1094.61 678.181ZM1105.92 668.223L1113.35 681.084L1110.18 682.914L1102.75 670.053L1105.92 668.223ZM1100.41 666.659C1101.83 669.127 1105.58 666.967 1104.15 664.499C1102.73 662.031 1098.98 664.191 1100.41 666.659ZM1117.78 661.861L1118.12 659.515L1121.48 659.932L1121.1 662.575C1122.74 663.123 1123.83 664.186 1124.64 665.589C1125.56 667.173 1126.25 669.753 1124.7 671.929C1127.45 671.764 1128.85 672.997 1129.8 674.634C1131.84 678.167 1130.39 681.91 1126.68 684.055C1122.96 686.2 1118.88 685.544 1116.88 682.089L1120.03 680.274C1120.99 681.937 1123.15 682.143 1124.97 681.093C1126.79 680.043 1127.65 678.231 1126.63 676.464C1125.61 674.697 1123.48 674.852 1121.89 675.767C1117.89 678.077 1113.99 677.075 1111.68 673.074C1109.37 669.073 1110.84 664.898 1114.42 662.828C1115.44 662.243 1116.55 661.773 1117.78 661.861ZM1116.09 665.712C1114.24 666.777 1113.53 669.024 1114.82 671.259C1116.11 673.493 1118.38 673.948 1120.23 672.883C1122.05 671.833 1122.78 669.612 1121.5 667.404C1120.23 665.195 1117.91 664.662 1116.09 665.712ZM1143.15 663.876L1139.98 665.706L1136.11 659.003C1134.99 657.055 1133.06 656.189 1131.04 657.359C1129.09 658.484 1128.71 660.886 1129.83 662.834L1133.61 669.381L1130.47 671.196L1123.06 658.362L1125.89 656.727L1127.11 658.347C1127.67 656.324 1128.59 654.925 1130.2 653.995C1133.22 652.255 1136.94 653.12 1139.26 657.147L1143.15 663.876ZM955.246 806.091L958.182 804.396L959.27 805.742C959.343 803.588 960.533 802.589 961.832 801.839C963.157 801.074 964.73 800.858 965.836 801.155L965.997 804.734C965.033 804.563 964.27 804.622 963.231 805.222C961.568 806.182 960.545 807.951 961.91 810.315L965.81 817.07L962.641 818.9L955.246 806.091ZM972.388 795.848C976.467 793.493 980.831 794.991 982.946 798.655C985.076 802.344 984.281 806.787 980.124 809.187C975.967 811.587 971.748 810.039 969.618 806.35C967.503 802.686 968.309 798.203 972.388 795.848ZM974.079 798.717C971.793 800.037 971.678 802.597 972.788 804.52C973.913 806.468 976.132 807.612 978.444 806.277C980.757 804.942 980.876 802.448 979.751 800.5C978.641 798.577 976.21 797.487 974.079 798.717ZM978.34 785.622L981.483 783.807L991.968 801.968L988.825 803.783L978.34 785.622ZM984.251 782.209L987.395 780.394L997.88 798.555L994.736 800.37L984.251 782.209ZM999.13 780.408C1003.21 778.053 1007.57 779.552 1009.69 783.215C1011.82 786.905 1011.02 791.347 1006.87 793.747C1002.71 796.147 998.49 794.6 996.36 790.91C994.245 787.247 995.051 782.763 999.13 780.408ZM1000.82 783.277C998.535 784.597 998.42 787.158 999.53 789.08C1000.65 791.029 1002.87 792.173 1005.19 790.838C1007.5 789.503 1007.62 787.009 1006.49 785.06C1005.38 783.138 1002.95 782.047 1000.82 783.277ZM1008.25 775.49L1011.42 773.66L1015.29 780.363C1016.41 782.311 1018.33 783.177 1020.36 782.007C1022.31 780.882 1022.69 778.48 1021.56 776.532L1017.78 769.985L1020.93 768.17L1028.34 781.004L1025.51 782.639L1024.29 781.019C1023.72 783.083 1022.86 784.411 1021.06 785.446C1018 787.216 1014.43 786.194 1012.13 782.219L1008.25 775.49ZM1023.13 762.532L1026.11 760.364L1028.21 764.001L1031.74 761.961L1033.32 764.689L1029.76 766.744L1032.95 772.278C1033.66 773.499 1034.68 773.707 1035.66 773.137C1036.16 772.852 1036.64 772.366 1036.97 771.862L1039.42 774.054C1038.72 774.943 1038.05 775.534 1037.11 776.115C1034.39 777.824 1031.65 777.289 1029.81 774.093L1026.61 768.559L1024.22 769.939L1022.65 767.211L1025.04 765.831L1023.13 762.532ZM1045 756.039L1044.43 759.138C1043.03 758.805 1041.82 759.119 1040.6 759.824C1039.1 760.694 1038.53 761.642 1039 762.447C1039.48 763.279 1040.5 763.312 1042.2 762.47C1044.71 761.231 1048.09 760.007 1050.05 763.41C1051.36 765.671 1050.64 768.684 1046.97 770.799C1044.95 771.969 1042.73 772.802 1039.73 771.933L1039.98 768.773C1041.48 769.261 1043.99 768.814 1045.44 768.015C1046.65 767.351 1047.4 766.083 1046.86 765.147C1046.35 764.264 1045.42 764.32 1043.54 765.266C1041.02 766.48 1037.62 767.261 1035.94 764.351C1034.23 761.39 1036.7 758.58 1039.04 757.23C1041.04 756.075 1042.77 755.595 1045 756.039ZM1061.09 744.948L1063.87 743.343L1072.24 751.362L1069.61 740.028L1073.12 738.003L1076.09 753.469L1072.4 755.599L1068.89 752.571L1065.27 748.944L1066.6 753.891L1067.46 758.449L1063.78 760.579L1051.84 750.288L1055.37 748.248L1063.87 756.192L1061.09 744.948ZM1078.95 734.6L1086.38 747.461L1083.21 749.291L1075.78 736.43L1078.95 734.6ZM1073.44 733.036C1074.87 735.504 1078.61 733.344 1077.18 730.876C1075.76 728.408 1072.02 730.568 1073.44 733.036ZM1081.26 728.972L1084.23 726.804L1086.33 730.442L1089.87 728.402L1091.44 731.13L1087.88 733.185L1091.08 738.719C1091.78 739.94 1092.8 740.147 1093.79 739.577C1094.29 739.292 1094.77 738.806 1095.1 738.303L1097.54 740.495C1096.84 741.383 1096.18 741.974 1095.23 742.555C1092.51 744.264 1089.78 743.729 1087.94 740.534L1084.74 735L1082.35 736.38L1080.78 733.652L1083.17 732.272L1081.26 728.972ZM1089.12 721.626L1092.29 719.796L1096.4 726.915C1096.69 724.774 1097.84 723.523 1099.29 722.683C1102.93 720.583 1105.97 722.121 1108.14 725.888L1112.04 732.643L1108.87 734.473L1104.99 727.744C1103.64 725.406 1101.85 725.123 1100.16 726.098C1098.29 727.178 1097.9 729.513 1099.01 731.436L1102.79 737.983L1099.62 739.813L1089.12 721.626ZM1115.72 713.375L1123.14 726.235L1119.97 728.065L1112.55 715.205L1115.72 713.375ZM1110.21 711.81C1111.63 714.278 1115.37 712.118 1113.95 709.65C1112.52 707.182 1108.78 709.342 1110.21 711.81ZM1138.61 717.304L1135.44 719.134L1131.57 712.431C1130.45 710.482 1128.53 709.616 1126.5 710.786C1124.55 711.911 1124.17 714.313 1125.3 716.262L1129.08 722.809L1125.93 724.624L1118.52 711.789L1121.35 710.154L1122.57 711.775C1123.13 709.752 1124.05 708.352 1125.67 707.422C1128.68 705.682 1132.4 706.548 1134.73 710.575L1138.61 717.304ZM1137.15 708.791L1135.47 705.881L1145.06 700.346L1146.74 703.256L1137.15 708.791ZM974.141 838.819L977.31 836.989L981.42 844.107C981.709 841.966 982.857 840.715 984.311 839.875C987.949 837.775 990.985 839.313 993.16 843.08L997.06 849.835L993.89 851.665L990.005 844.936C988.655 842.598 986.864 842.316 985.175 843.291C983.304 844.371 982.92 846.705 984.03 848.628L987.81 855.175L984.641 857.005L974.141 838.819ZM998.22 831.741C1002.3 829.386 1006.66 830.885 1008.78 834.548C1010.91 838.237 1010.11 842.68 1005.96 845.08C1001.8 847.48 997.579 845.932 995.449 842.243C993.334 838.58 994.141 834.096 998.22 831.741ZM999.911 834.61C997.624 835.93 997.509 838.49 998.619 840.413C999.744 842.362 1001.96 843.505 1004.28 842.17C1006.59 840.835 1006.71 838.342 1005.58 836.393C1004.47 834.47 1002.04 833.38 999.911 834.61ZM1007.34 826.822L1010.51 824.992L1014.38 831.695C1015.5 833.644 1017.42 834.51 1019.45 833.34C1021.4 832.215 1021.78 829.813 1020.65 827.865L1016.87 821.317L1020.02 819.502L1027.43 832.337L1024.6 833.972L1023.38 832.351C1022.81 834.415 1021.95 835.744 1020.15 836.779C1017.09 838.549 1013.52 837.527 1011.22 833.551L1007.34 826.822ZM1033.71 813.363L1033.14 816.461C1031.74 816.129 1030.54 816.443 1029.31 817.148C1027.81 818.018 1027.25 818.966 1027.71 819.771C1028.19 820.603 1029.21 820.635 1030.91 819.794C1033.42 818.555 1036.8 817.331 1038.76 820.734C1040.07 822.995 1039.35 826.008 1035.69 828.123C1033.66 829.293 1031.44 830.125 1028.44 829.257L1028.7 826.097C1030.19 826.585 1032.7 826.138 1034.15 825.339C1035.36 824.675 1036.11 823.407 1035.57 822.471C1035.06 821.588 1034.13 821.644 1032.25 822.59C1029.73 823.803 1026.33 824.585 1024.65 821.675C1022.94 818.713 1025.41 815.904 1027.75 814.554C1029.75 813.399 1031.48 812.919 1033.71 813.363ZM1052.63 810.719L1042.63 816.494C1043.75 817.959 1045.79 818.307 1048.02 817.017C1049.19 816.342 1050.47 815.016 1050.76 813.842L1053.94 814.673C1053.4 816.856 1051.58 818.806 1049.63 819.931C1045.22 822.481 1041.02 821.268 1038.65 817.163C1036.4 813.266 1037.43 808.93 1041.59 806.53C1045.87 804.055 1050.08 805.16 1052.63 810.719ZM1041.16 813.84L1048.08 809.85C1046.91 808.307 1045.13 808.226 1043.31 809.276C1041.6 810.266 1040.67 811.907 1041.16 813.84ZM1068.87 804.702C1071.03 803.457 1071.56 800.965 1070.41 798.965C1069.25 796.964 1066.96 796.107 1064.67 797.427C1062.39 798.747 1061.98 801.164 1063.14 803.165C1064.29 805.165 1066.72 805.947 1068.87 804.702ZM1069.63 815.073L1066.46 816.903L1055.97 798.742L1058.94 797.032L1060.16 798.679C1060.33 796.68 1061.68 795.067 1063.14 794.227C1067.09 791.947 1071.4 793.367 1073.58 797.135C1075.74 800.876 1075.09 805.203 1070.98 807.573C1069.63 808.353 1067.39 809.092 1065.67 808.214L1069.63 815.073ZM1072.21 789.367L1075.15 787.672L1076.24 789.018C1076.31 786.864 1077.5 785.865 1078.8 785.115C1080.12 784.35 1081.7 784.134 1082.8 784.431L1082.96 788.01C1082 787.839 1081.24 787.898 1080.2 788.498C1078.54 789.458 1077.51 791.227 1078.88 793.591L1082.78 800.346L1079.61 802.176L1072.21 789.367ZM1089.36 779.124C1093.43 776.769 1097.8 778.267 1099.91 781.931C1102.04 785.62 1101.25 790.063 1097.09 792.463C1092.93 794.863 1088.72 793.315 1086.59 789.626C1084.47 785.962 1085.28 781.479 1089.36 779.124ZM1091.05 781.993C1088.76 783.313 1088.64 785.873 1089.75 787.796C1090.88 789.744 1093.1 790.888 1095.41 789.553C1097.72 788.218 1097.84 785.724 1096.72 783.776C1095.61 781.853 1093.18 780.763 1091.05 781.993ZM1106.14 773.315C1104.11 774.485 1103.32 776.844 1104.66 779.157C1105.95 781.391 1108.44 781.994 1110.47 780.824C1112.47 779.669 1113.35 777.224 1112.01 774.912C1110.72 772.677 1108.14 772.16 1106.14 773.315ZM1105.44 763.048L1108.61 761.218L1119.09 779.379L1116.13 781.089L1114.9 779.442C1114.8 781.545 1113.52 782.98 1111.96 783.88C1108.19 786.055 1103.92 785.195 1101.49 780.987C1098.94 776.57 1100.4 772.678 1104.14 770.518C1105.49 769.738 1108.02 769.251 1109.53 770.141L1105.44 763.048ZM1114.26 765.094L1117.43 763.264L1121.3 769.967C1122.42 771.916 1124.34 772.781 1126.37 771.611C1128.32 770.486 1128.7 768.085 1127.57 766.136L1123.79 759.589L1126.93 757.774L1134.34 770.608L1131.51 772.243L1130.3 770.623C1129.72 772.687 1128.86 774.015 1127.07 775.05C1124 776.82 1120.44 775.798 1118.14 771.823L1114.26 765.094ZM1143.84 760.138L1147.17 760.986C1146.53 763.296 1145.3 764.768 1143.4 765.863C1139.69 768.008 1135.31 767.558 1132.68 763.012C1130.06 758.465 1131.86 754.446 1135.57 752.301C1137.39 751.251 1139.1 750.96 1141.29 751.527L1140.51 754.787C1139.36 754.546 1138.23 754.748 1137.35 755.258C1135.22 756.488 1134.56 758.947 1135.85 761.182C1137.26 763.624 1139.67 763.963 1141.65 762.823C1142.66 762.238 1143.51 761.367 1143.84 760.138ZM1141.52 744.987L1144.5 742.82L1146.6 746.457L1150.13 744.417L1151.7 747.145L1148.14 749.2L1151.34 754.734C1152.04 755.955 1153.07 756.163 1154.05 755.593C1154.55 755.308 1155.03 754.822 1155.36 754.318L1157.8 756.51C1157.1 757.399 1156.44 757.989 1155.49 758.57C1152.77 760.279 1150.04 759.744 1148.2 756.549L1145 751.015L1142.61 752.395L1141.04 749.667L1143.43 748.287L1141.52 744.987ZM1155.63 741.138L1163.05 753.998L1159.88 755.828L1152.46 742.968L1155.63 741.138ZM1150.12 739.573C1151.54 742.042 1155.28 739.882 1153.86 737.413C1152.43 734.945 1148.69 737.105 1150.12 739.573ZM1164.68 735.633C1168.76 733.278 1173.13 734.776 1175.24 738.44C1177.37 742.129 1176.58 746.572 1172.42 748.972C1168.26 751.372 1164.04 749.824 1161.91 746.135C1159.8 742.471 1160.61 737.988 1164.68 735.633ZM1166.38 738.501C1164.09 739.821 1163.97 742.382 1165.08 744.305C1166.21 746.253 1168.43 747.397 1170.74 746.062C1173.05 744.727 1173.17 742.233 1172.05 740.285C1170.94 738.362 1168.51 737.271 1166.38 738.501ZM1193.72 736.293L1190.55 738.123L1186.68 731.42C1185.56 729.471 1183.64 728.605 1181.61 729.775C1179.66 730.9 1179.28 733.302 1180.41 735.25L1184.19 741.798L1181.04 743.613L1173.63 730.778L1176.46 729.143L1177.68 730.764C1178.24 728.741 1179.17 727.341 1180.78 726.411C1183.79 724.671 1187.51 725.537 1189.84 729.564L1193.72 736.293ZM1009.48 882.87C1006.96 884.325 1006.62 886.321 1007.25 887.412C1008.36 889.335 1010.7 888.993 1012.59 887.898C1013.81 887.193 1016.01 885.059 1014.95 883.214L1013.43 880.59C1012.11 881.355 1010.81 882.105 1009.48 882.87ZM1016.68 878.715L1018.21 881.365C1018.82 882.43 1019.82 883.07 1020.98 882.395L1022.95 885.798C1021.6 886.578 1019.91 887.136 1018.14 885.388C1018.07 888.026 1016.34 889.824 1014.41 890.934C1010.44 893.229 1006.48 893.816 1003.86 889.336C1002.98 887.803 1003.12 885.47 1004.48 883.923C1002.54 884.348 1000.73 883.073 999.905 881.644C997.696 877.758 1000.44 874.058 1003.69 872.183C1006.86 870.353 1011.02 869.579 1013.31 873.487L1010.07 875.362C1009.11 873.699 1007.14 874.073 1005.29 875.138C1002.62 876.683 1002.59 878.674 1003.23 879.724C1004.3 881.568 1006.88 880.768 1008.1 880.063C1010.94 878.428 1013.79 876.778 1016.62 875.143L1018.18 877.845L1016.68 878.715ZM1034.22 863.875L1033.65 866.974C1032.25 866.641 1031.05 866.956 1029.82 867.661C1028.32 868.531 1027.76 869.478 1028.22 870.284C1028.7 871.115 1029.72 871.148 1031.42 870.307C1033.93 869.068 1037.31 867.843 1039.27 871.247C1040.58 873.507 1039.86 876.52 1036.2 878.635C1034.17 879.805 1031.95 880.638 1028.95 879.769L1029.21 876.609C1030.7 877.097 1033.21 876.651 1034.66 875.852C1035.87 875.188 1036.63 873.919 1036.09 872.984C1035.58 872.1 1034.64 872.157 1032.76 873.103C1030.24 874.316 1026.84 875.097 1025.16 872.188C1023.45 869.226 1025.92 866.417 1028.26 865.067C1030.26 863.912 1031.99 863.431 1034.22 863.875ZM1035.49 857.009L1038.47 854.841L1040.57 858.478L1044.1 856.438L1045.68 859.166L1042.12 861.221L1045.31 866.755C1046.02 867.976 1047.04 868.184 1048.03 867.614C1048.52 867.329 1049 866.843 1049.33 866.339L1051.78 868.531C1051.08 869.42 1050.41 870.011 1049.47 870.592C1046.75 872.3 1044.01 871.766 1042.17 868.57L1038.97 863.036L1036.58 864.416L1035.01 861.688L1037.4 860.308L1035.49 857.009ZM1046.46 855.041L1049.4 853.346L1050.49 854.692C1050.56 852.537 1051.75 851.538 1053.05 850.788C1054.37 850.023 1055.95 849.808 1057.05 850.104L1057.21 853.683C1056.25 853.513 1055.49 853.572 1054.45 854.172C1052.79 855.132 1051.76 856.9 1053.13 859.264L1057.03 866.019L1053.86 867.849L1046.46 855.041ZM1068.8 844.499L1067.89 842.672L1070.93 840.917L1078.32 853.726L1075.33 855.451L1074.1 853.67C1074.24 855.597 1072.66 857.479 1071.25 858.33C1067.47 860.546 1063.31 859.828 1060.72 855.333C1058.17 850.917 1059.77 846.909 1063.52 844.775C1065.24 843.785 1067.34 843.646 1068.8 844.499ZM1065.44 847.442C1063.34 848.657 1062.48 851.061 1063.89 853.503C1065.3 855.945 1067.82 856.425 1069.93 855.21C1074.92 852.33 1070.43 844.562 1065.44 847.442ZM1072.46 835.666L1075.44 833.498L1077.54 837.135L1081.07 835.095L1082.64 837.823L1079.09 839.878L1082.28 845.412C1082.99 846.633 1084.01 846.841 1084.99 846.271C1085.49 845.986 1085.97 845.5 1086.3 844.996L1088.74 847.188C1088.04 848.077 1087.38 848.668 1086.44 849.249C1083.72 850.958 1080.98 850.423 1079.14 847.227L1075.94 841.693L1073.55 843.073L1071.98 840.345L1074.37 838.965L1072.46 835.666ZM1100.48 833.898L1090.48 839.673C1091.6 841.137 1093.64 841.486 1095.88 840.196C1097.04 839.521 1098.32 838.194 1098.62 837.02L1101.8 837.851C1101.26 840.034 1099.44 841.984 1097.49 843.109C1093.07 845.659 1088.87 844.446 1086.5 840.341C1084.25 836.444 1085.28 832.108 1089.44 829.708C1093.73 827.233 1097.93 828.338 1100.48 833.898ZM1089.02 837.019L1095.93 833.029C1094.76 831.486 1092.98 831.404 1091.16 832.454C1089.45 833.444 1088.53 835.086 1089.02 837.019ZM1107.54 820.195L1107.88 817.849L1111.24 818.266L1110.86 820.909C1112.49 821.457 1113.59 822.52 1114.4 823.923C1115.32 825.507 1116.01 828.087 1114.46 830.263C1117.2 830.098 1118.61 831.331 1119.55 832.968C1121.59 836.501 1120.15 840.244 1116.44 842.389C1112.72 844.534 1108.64 843.878 1106.64 840.423L1109.79 838.608C1110.75 840.271 1112.91 840.477 1114.73 839.427C1116.55 838.377 1117.4 836.565 1116.38 834.798C1115.36 833.031 1113.24 833.186 1111.65 834.101C1107.65 836.411 1103.75 835.409 1101.44 831.408C1099.13 827.406 1100.6 823.232 1104.18 821.162C1105.2 820.577 1106.31 820.107 1107.54 820.195ZM1105.85 824.046C1104 825.111 1103.29 827.358 1104.58 829.593C1105.87 831.827 1108.14 832.282 1109.99 831.217C1111.81 830.167 1112.53 827.946 1111.26 825.738C1109.98 823.529 1107.67 822.996 1105.85 824.046ZM1122.57 811.1L1126.08 809.075L1128.74 831.751L1125.26 833.761L1124.44 826.821L1112.05 817.175L1115.74 815.045L1120.88 819.454L1124.19 822.36L1123.47 818.062L1122.57 811.1Z" fill="black" fill-opacity="0.7"/>
</g>
</g>
<g filter="url(#filter1_d_669_13911)">
<g clip-path="url(#clip1_669_13911)">
<rect x="159.055" y="151" width="456.886" height="462.658" rx="27" transform="rotate(11.3503 159.055 151)" fill="white"/>
<rect x="176.953" y="249.23" width="386" height="335.322" rx="24" transform="rotate(11.9881 176.953 249.23)" fill="#FDF3EC"/>
<path d="M249.771 346.952L241.349 345.234C239.782 342.863 238.83 340.25 238.494 337.395C238.188 334.546 238.307 331.784 238.853 329.109C240.251 322.26 243.182 317.347 247.648 314.37L256.069 316.089C257.607 318.454 258.544 321.064 258.88 323.919C259.222 326.744 259.123 329.48 258.583 332.125C257.168 339.062 254.23 344.005 249.771 346.952ZM252.697 320.912L248.905 320.138C247.072 322.519 245.738 325.753 244.904 329.839C244.071 333.925 243.998 337.507 244.686 340.587L248.566 341.379C250.49 338.404 251.847 334.976 252.639 331.096C253.431 327.216 253.45 323.821 252.697 320.912ZM260.404 349.122L265.623 323.549L262.095 322.83L263.175 317.539L272.875 319.518L266.577 350.382L260.404 349.122Z" fill="#B97C59"/>
<path d="M229.319 407.286L226.12 406.607L226.793 403.437L229.757 404.067C231.841 404.509 234.16 404.419 234.594 402.518C234.844 401.344 234.235 399.589 230.948 398.891C229.129 398.505 226.527 398.627 226.128 400.505L222.254 399.683C223.195 395.252 227.94 394.572 231.725 395.376C235.599 396.199 239.367 398.962 238.468 403.34C238.125 404.954 236.67 406.608 234.762 406.786C236.591 407.849 237.559 410.078 237.191 411.81C236.125 416.828 231.083 417.321 227.121 416.48C223.218 415.651 219.107 413.061 220.068 408.389L223.971 409.217C223.523 411.33 226.213 412.668 227.886 413.024C229.852 413.441 232.638 413.174 233.106 410.973C233.367 409.74 233.017 408.071 229.319 407.286ZM245.361 405.295L245.386 405.177L244.732 408.259C245.941 407.043 248.333 406.754 249.947 407.097C254.085 407.975 258.06 410.629 256.976 415.735C256.01 420.284 251.158 421.615 247.02 420.736C242.824 419.845 238.931 416.657 239.909 412.05L241.536 404.39C242.508 399.812 247.188 398.568 251.414 399.465C255.875 400.412 259.463 403.014 258.547 407.328L254.673 406.505C255.059 404.686 252.964 403.29 250.763 402.823C248.451 402.301 245.835 403.064 245.361 405.295ZM247.756 417.273C250.191 417.79 252.652 417.178 253.132 414.919C253.612 412.659 251.813 411.02 249.231 410.471C246.648 409.923 244.198 410.629 243.741 412.925C243.291 415.19 245.232 416.737 247.756 417.273ZM264.322 411.774L263.693 414.738C262.11 422.192 272.44 424.386 274.023 416.932L274.652 413.968C276.21 406.631 265.899 404.35 264.322 411.774ZM259.849 413.922L260.478 410.958C263.083 398.692 281.095 402.547 278.496 414.784L277.867 417.748C275.268 429.985 257.244 426.189 259.849 413.922ZM281.445 409.46C281.968 406.995 284.232 406.157 286.198 406.575C288.164 406.992 289.862 408.672 289.339 411.137C288.809 413.631 286.552 414.44 284.586 414.022C282.62 413.605 280.915 411.955 281.445 409.46ZM285.749 408.688C283.46 408.202 282.739 411.453 285.028 411.939C287.317 412.425 287.98 409.161 285.749 408.688ZM306.756 433.083L303.176 432.323L304.821 424.575C305.226 422.668 304.596 420.725 302.63 420.307C300.693 419.896 299.181 421.384 298.776 423.292L297.131 431.039L293.551 430.279L296.629 415.782L299.945 416.486L299.835 418.303C300.91 416.998 302.695 416.825 304.074 417.118C305.805 417.485 307.387 418.557 307.785 420.727C309.512 418.947 311.31 418.715 313.188 419.114C317.296 419.987 318.785 422.94 317.863 427.283L316.206 435.089L312.625 434.329L314.283 426.523C314.688 424.616 314.238 422.834 312.301 422.422C310.365 422.011 308.806 423.428 308.401 425.336L306.756 433.083ZM333.864 425.805L334.405 423.834L337.838 424.563L334.766 439.031L331.391 438.314L331.664 436.164C330.481 437.691 328.047 438.033 326.427 437.72C322.136 436.839 319.527 433.525 320.605 428.448C321.665 423.46 325.535 421.552 329.755 422.479C331.692 422.89 333.347 424.192 333.864 425.805ZM329.399 425.746C327.022 425.241 324.771 426.45 324.186 429.209C323.6 431.967 325.158 434.016 327.535 434.52C333.17 435.717 335.033 426.942 329.399 425.746ZM340.87 425.207L344.187 425.911L344.095 427.64C345.591 426.087 347.143 426.14 348.611 426.452C350.107 426.77 351.421 427.662 352.045 428.622L349.77 431.39C349.167 430.618 348.561 430.152 347.387 429.903C345.509 429.504 343.566 430.134 342.999 432.805L341.379 440.435L337.798 439.674L340.87 425.207ZM354.79 421.845L358.37 422.605L355.853 434.461L361.958 429.685L366.243 430.594L366.199 430.8L358.898 436.15L364.048 444.972L363.992 445.236L359.678 444.32L355.404 436.574L354.015 443.118L350.435 442.358L354.79 421.845ZM381.24 442.673L369.942 440.274C369.797 442.114 371.078 443.735 373.602 444.271C374.922 444.552 376.76 444.421 377.762 443.744L379.571 446.49C377.709 447.75 375.052 447.984 372.851 447.516C367.863 446.457 365.553 442.746 366.538 438.11C367.472 433.708 371.138 431.174 375.834 432.171C380.676 433.199 383.063 436.834 381.24 442.673ZM370.63 437.323L378.436 438.98C378.6 437.052 377.332 435.801 375.278 435.365C373.341 434.954 371.557 435.557 370.63 437.323ZM387.428 431.229L391.089 431.607L390.217 435.716L394.208 436.563L393.554 439.645L389.533 438.791L388.206 445.042C387.913 446.421 388.533 447.258 389.648 447.495C390.206 447.613 390.889 447.574 391.473 447.422L391.823 450.686C390.708 450.879 389.82 450.874 388.728 450.673C385.563 450.123 383.889 447.897 384.655 444.288L385.982 438.037L383.283 437.464L383.937 434.382L386.637 434.956L387.428 431.229ZM400.489 437.805L397.405 452.331L393.825 451.571L396.909 437.045L400.489 437.805ZM397.44 432.956C396.848 435.744 401.074 436.641 401.666 433.853C402.258 431.065 398.032 430.168 397.44 432.956ZM414.878 456.041L411.298 455.281L412.905 447.71C413.373 445.509 412.525 443.581 410.236 443.095C408.035 442.628 406.146 444.159 405.678 446.359L404.108 453.755L400.557 453.001L403.636 438.504L406.834 439.183L406.651 441.199C408.424 440.073 410.047 439.651 411.867 440.037C415.271 440.76 417.458 443.892 416.492 448.441L414.878 456.041ZM430.871 444.686L432.695 443.171L434.912 445.728L432.862 447.439C433.709 448.938 433.815 450.463 433.478 452.048C433.098 453.838 431.888 456.218 429.28 456.799C431.431 458.513 431.65 460.37 431.258 462.218C430.41 466.209 426.835 468.026 422.638 467.135C418.442 466.244 415.844 463.024 416.673 459.121L420.224 459.875C419.825 461.753 421.294 463.354 423.349 463.79C425.403 464.226 427.254 463.454 427.677 461.458C428.101 459.463 426.416 458.154 424.626 457.774C420.107 456.814 417.875 453.458 418.835 448.938C419.795 444.419 423.68 442.3 427.729 443.16C428.874 443.403 430.016 443.799 430.871 444.686ZM427.038 446.417C424.954 445.975 422.922 447.169 422.386 449.692C421.85 452.216 423.234 454.074 425.318 454.517C427.372 454.953 429.398 453.788 429.928 451.294C430.457 448.799 429.092 446.853 427.038 446.417ZM223.735 445.285L226.875 445.952L227.732 457.512L233.36 447.329L237.322 448.17L229.183 461.654L225.016 460.769L224.429 456.166L224.166 451.05L221.847 455.618L219.441 459.585L215.274 458.7L213.287 443.067L217.278 443.914L218.283 455.505L223.735 445.285ZM243.934 449.543L240.849 464.069L237.269 463.309L240.354 448.783L243.934 449.543ZM240.885 444.694C240.293 447.482 244.518 448.379 245.11 445.591C245.702 442.804 241.476 441.906 240.885 444.694ZM249.414 446.904L253.075 447.283L252.203 451.391L256.194 452.239L255.54 455.32L251.519 454.466L250.192 460.717C249.899 462.096 250.519 462.933 251.634 463.17C252.192 463.288 252.875 463.249 253.459 463.097L253.809 466.361C252.694 466.554 251.806 466.549 250.714 466.348C247.549 465.799 245.875 463.572 246.641 459.963L247.969 453.712L245.269 453.139L245.923 450.058L248.623 450.631L249.414 446.904ZM260.173 446.704L263.753 447.464L262.046 455.505C263.692 454.107 265.383 453.944 267.026 454.293C271.134 455.166 272.362 458.34 271.458 462.595L269.838 470.225L266.258 469.465L267.872 461.864C268.433 459.223 267.29 457.815 265.383 457.41C263.27 456.961 261.422 458.44 260.961 460.611L259.391 468.007L255.811 467.246L260.173 446.704ZM282.805 457.552C287.412 458.53 289.653 462.563 288.775 466.701C287.89 470.868 284.327 473.639 279.631 472.642C274.936 471.645 272.835 467.672 273.72 463.505C274.599 459.367 278.198 456.573 282.805 457.552ZM282.143 460.815C279.56 460.267 277.762 462.093 277.3 464.265C276.833 466.466 277.717 468.8 280.329 469.355C282.941 469.91 284.698 468.136 285.165 465.935C285.626 463.763 284.549 461.326 282.143 460.815ZM292.873 459.996L296.453 460.757L294.846 468.328C294.378 470.529 295.226 472.457 297.515 472.943C299.716 473.41 301.606 471.879 302.073 469.678L303.643 462.283L307.194 463.037L304.116 477.534L300.917 476.855L301.1 474.839C299.292 475.988 297.763 476.4 295.738 475.97C292.275 475.234 290.306 472.087 291.259 467.597L292.873 459.996ZM312.605 460.322L316.266 460.701L315.394 464.809L319.385 465.656L318.73 468.738L314.71 467.884L313.383 474.135C313.09 475.514 313.71 476.351 314.825 476.588C315.382 476.706 316.065 476.667 316.65 476.515L316.999 479.779C315.885 479.972 314.997 479.967 313.905 479.766C310.74 479.217 309.066 476.99 309.832 473.381L311.159 467.13L308.459 466.557L309.114 463.475L311.814 464.049L312.605 460.322ZM331.54 468.145L327.801 485.753C327.041 489.333 324.993 491.321 321.736 490.629C320.679 490.405 319.627 489.875 318.743 488.982L320.626 486.468C321.18 486.892 321.736 487.164 322.27 487.247C323.456 487.437 323.914 486.584 324.25 484.999L327.989 467.391L331.54 468.145ZM328.526 463.273C327.934 466.061 332.16 466.958 332.752 464.17C333.344 461.383 329.118 460.485 328.526 463.273ZM334.657 468.869L338.237 469.629L336.629 477.2C336.162 479.401 337.01 481.329 339.299 481.815C341.5 482.282 343.389 480.751 343.856 478.551L345.426 471.155L348.977 471.909L345.899 486.406L342.7 485.727L342.883 483.711C341.075 484.86 339.546 485.272 337.521 484.842C334.058 484.107 332.089 480.959 333.043 476.469L334.657 468.869ZM361.98 475.038L363.804 473.524L366.022 476.081L363.971 477.792C364.819 479.291 364.924 480.816 364.588 482.401C364.207 484.191 362.997 486.571 360.389 487.152C362.54 488.866 362.759 490.722 362.367 492.571C361.519 496.562 357.944 498.379 353.747 497.488C349.551 496.597 346.953 493.377 347.782 489.474L351.333 490.228C350.934 492.106 352.404 493.706 354.458 494.143C356.512 494.579 358.363 493.806 358.786 491.811C359.21 489.815 357.525 488.507 355.735 488.127C351.216 487.167 348.984 483.81 349.944 479.291C350.904 474.772 354.789 472.653 358.838 473.513C359.983 473.756 361.125 474.152 361.98 475.038ZM358.147 476.77C356.063 476.328 354.031 477.521 353.495 480.045C352.959 482.569 354.343 484.427 356.427 484.869C358.481 485.306 360.507 484.141 361.037 481.647C361.566 479.152 360.201 477.206 358.147 476.77ZM378.172 478.477L379.996 476.962L382.213 479.519L380.163 481.23C381.01 482.729 381.116 484.254 380.779 485.839C380.399 487.629 379.188 490.009 376.581 490.59C378.732 492.304 378.951 494.16 378.558 496.009C377.711 500 374.136 501.817 369.939 500.926C365.743 500.035 363.145 496.815 363.974 492.912L367.524 493.666C367.126 495.544 368.595 497.145 370.649 497.581C372.704 498.017 374.554 497.245 374.978 495.249C375.402 493.253 373.717 491.945 371.927 491.565C367.408 490.605 365.176 487.249 366.136 482.729C367.095 478.21 370.98 476.091 375.03 476.951C376.174 477.194 377.317 477.59 378.172 478.477ZM374.338 480.208C372.255 479.766 370.222 480.96 369.687 483.483C369.151 486.007 370.535 487.865 372.619 488.307C374.673 488.744 376.699 487.579 377.228 485.085C377.758 482.59 376.393 480.644 374.338 480.208ZM385.803 473.411L389.354 474.165L384.998 494.678L381.447 493.924L385.803 473.411ZM394.789 481.576L391.705 496.102L388.125 495.342L391.209 480.815L394.789 481.576ZM391.74 476.727C391.148 479.514 395.374 480.412 395.966 477.624C396.558 474.836 392.332 473.939 391.74 476.727ZM409.178 499.812L405.598 499.052L407.205 491.481C407.673 489.28 406.825 487.352 404.536 486.865C402.335 486.398 400.446 487.929 399.978 490.13L398.408 497.525L394.857 496.771L397.935 482.274L401.134 482.954L400.951 484.97C402.724 483.843 404.347 483.421 406.166 483.808C409.571 484.53 411.758 487.663 410.792 492.212L409.178 499.812ZM425.171 488.456L426.995 486.942L429.212 489.498L427.162 491.21C428.009 492.709 428.115 494.234 427.778 495.818C427.398 497.609 426.187 499.989 423.58 500.57C425.731 502.284 425.95 504.14 425.557 505.989C424.71 509.98 421.135 511.797 416.938 510.906C412.742 510.015 410.144 506.795 410.973 502.892L414.523 503.646C414.125 505.524 415.594 507.124 417.648 507.56C419.703 507.997 421.553 507.224 421.977 505.229C422.401 503.233 420.716 501.925 418.926 501.545C414.407 500.585 412.175 497.228 413.135 492.709C414.094 488.19 417.979 486.071 422.029 486.93C423.174 487.173 424.316 487.569 425.171 488.456ZM421.337 490.188C419.254 489.745 417.222 490.939 416.686 493.463C416.15 495.987 417.534 497.845 419.618 498.287C421.672 498.723 423.698 497.559 424.227 495.064C424.757 492.57 423.392 490.624 421.337 490.188ZM214.569 503.47L210.989 502.71L212.634 494.963C213.039 493.055 212.409 491.112 210.443 490.694C208.506 490.283 206.994 491.771 206.589 493.679L204.944 501.426L201.364 500.666L204.442 486.169L207.758 486.873L207.648 488.69C208.723 487.385 210.507 487.212 211.887 487.505C213.618 487.872 215.2 488.944 215.598 491.114C217.325 489.334 219.123 489.103 221.001 489.501C225.109 490.374 226.598 493.327 225.676 497.671L224.018 505.477L220.438 504.716L222.096 496.91C222.501 495.003 222.051 493.221 220.114 492.809C218.178 492.398 216.619 493.815 216.214 495.723L214.569 503.47ZM230.201 491.67L233.781 492.43L232.174 500.001C231.706 502.202 232.554 504.13 234.843 504.616C237.044 505.083 238.933 503.553 239.401 501.352L240.971 493.956L244.522 494.71L241.444 509.207L238.245 508.528L238.428 506.512C236.619 507.661 235.091 508.073 233.066 507.643C229.603 506.908 227.634 503.76 228.587 499.27L230.201 491.67ZM248.964 489.336L252.515 490.09L248.159 510.603L244.608 509.849L248.964 489.336ZM256.61 493.413L260.271 493.792L259.399 497.9L263.39 498.748L262.736 501.829L258.715 500.975L257.388 507.226C257.095 508.605 257.715 509.442 258.83 509.679C259.388 509.797 260.071 509.758 260.655 509.606L261.005 512.87C259.89 513.063 259.002 513.058 257.91 512.857C254.745 512.308 253.071 510.081 253.837 506.472L255.164 500.221L252.465 499.648L253.119 496.567L255.819 497.14L256.61 493.413ZM269.671 499.989L266.587 514.515L263.007 513.755L266.091 499.229L269.671 499.989ZM266.622 495.14C266.03 497.928 270.256 498.825 270.848 496.038C271.44 493.25 267.214 492.352 266.622 495.14ZM278.499 513.794C280.935 514.311 283 512.818 283.48 510.558C283.96 508.298 282.826 506.126 280.244 505.577C277.662 505.029 275.743 506.554 275.263 508.813C274.783 511.073 276.064 513.277 278.499 513.794ZM272.124 522.009L268.544 521.249L272.899 500.736L276.245 501.446L276.056 503.492C277.514 502.115 279.6 501.822 281.243 502.17C285.704 503.118 287.964 507.063 287.06 511.318C286.163 515.544 282.782 518.322 278.145 517.338C276.619 517.014 274.46 516.064 273.769 514.262L272.124 522.009ZM292.524 498.585L296.075 499.339L291.719 519.852L288.168 519.098L292.524 498.585ZM310.461 517.606L299.163 515.207C299.017 517.047 300.298 518.668 302.822 519.204C304.143 519.484 305.98 519.353 306.982 518.677L308.792 521.422C306.929 522.683 304.273 522.916 302.072 522.449C297.083 521.39 294.773 517.679 295.758 513.042C296.693 508.641 300.359 506.107 305.054 507.104C309.896 508.132 312.283 511.767 310.461 517.606ZM299.851 512.255L307.657 513.913C307.821 511.985 306.553 510.734 304.499 510.298C302.562 509.887 300.778 510.489 299.851 512.255ZM206.395 531.565L210.298 532.394L201.045 545.641L197.171 544.818L194.07 528.948L197.973 529.777L198.953 534.984L199.887 541.561L203.372 535.983L206.395 531.565ZM224.576 544.35L213.278 541.951C213.132 543.791 214.413 545.412 216.937 545.948C218.258 546.229 220.095 546.097 221.097 545.421L222.906 548.167C221.044 549.427 218.388 549.661 216.187 549.193C211.198 548.134 208.888 544.423 209.873 539.787C210.807 535.385 214.474 532.851 219.169 533.848C224.011 534.876 226.398 538.511 224.576 544.35ZM213.966 539L221.772 540.657C221.936 538.729 220.668 537.478 218.613 537.042C216.677 536.631 214.893 537.234 213.966 539ZM240.302 553.915L236.722 553.155L238.33 545.584C238.797 543.383 237.949 541.455 235.66 540.969C233.459 540.501 231.57 542.032 231.102 544.233L229.532 551.628L225.981 550.874L229.06 536.378L232.258 537.057L232.076 539.073C233.848 537.946 235.471 537.524 237.291 537.911C240.695 538.633 242.882 541.766 241.916 546.315L240.302 553.915ZM252.829 544.584C250.54 544.098 248.378 545.325 247.823 547.937C247.287 550.461 248.739 552.578 251.028 553.064C253.288 553.544 255.573 552.312 256.128 549.7C256.664 547.177 255.088 545.063 252.829 544.584ZM259.179 536.486L262.759 537.246L258.404 557.759L255.058 557.049L255.247 555.003C253.765 556.498 251.85 556.705 250.089 556.331C245.834 555.427 243.233 551.931 244.243 547.177C245.302 542.188 248.991 540.272 253.216 541.17C254.742 541.494 256.945 542.82 257.478 544.497L259.179 536.486ZM271.462 545.105C276.069 546.083 278.31 550.117 277.432 554.255C276.547 558.422 272.984 561.192 268.288 560.195C263.593 559.198 261.492 555.225 262.377 551.058C263.256 546.92 266.855 544.127 271.462 545.105ZM270.799 548.369C268.217 547.82 266.418 549.647 265.957 551.818C265.49 554.019 266.374 556.354 268.986 556.908C271.598 557.463 273.355 555.689 273.822 553.488C274.283 551.317 273.206 548.88 270.799 548.369ZM281.442 547.531L284.758 548.235L284.667 549.964C286.162 548.411 287.715 548.464 289.182 548.776C290.679 549.094 291.992 549.986 292.616 550.947L290.342 553.714C289.739 552.942 289.133 552.476 287.959 552.227C286.081 551.828 284.137 552.458 283.57 555.129L281.95 562.759L278.37 561.998L281.442 547.531ZM305.293 554.16L302.799 556.084C301.978 554.897 300.873 554.325 299.493 554.032C297.791 553.671 296.74 554 296.547 554.909C296.347 555.848 297.086 556.557 298.91 557.067C301.602 557.823 304.934 559.174 304.118 563.019C303.575 565.572 301.025 567.33 296.887 566.452C294.598 565.966 292.39 565.098 290.744 562.449L293.047 560.269C293.831 561.632 295.998 562.981 297.606 563.353C298.95 563.669 300.361 563.233 300.585 562.177C300.797 561.179 300.063 560.594 298.034 560.04C295.348 559.255 292.303 557.566 293 554.279C293.711 550.934 297.423 550.495 300.064 551.056C302.324 551.536 303.932 552.337 305.293 554.16ZM305.814 565.894C306.406 563.106 310.631 564.003 310.04 566.791C309.448 569.579 305.222 568.682 305.814 565.894Z" fill="black" fill-opacity="0.7"/>
</g>
</g>
<g filter="url(#filter2_d_669_13911)">
<g clip-path="url(#clip2_669_13911)">
<rect x="143.309" y="1049" width="456.89" height="462.66" rx="27" transform="rotate(7.86481 143.309 1049)" fill="white"/>
<rect x="167.57" y="1150.34" width="386" height="335.32" rx="24" transform="rotate(7.86481 167.57 1150.34)" fill="#542E67" fill-opacity="0.3"/>
<path d="M247.228 1242.57L238.705 1241.46C236.971 1239.21 235.834 1236.67 235.293 1233.85C234.783 1231.03 234.703 1228.27 235.055 1225.56C235.957 1218.63 238.528 1213.52 242.768 1210.23L251.291 1211.34C252.995 1213.58 254.117 1216.12 254.658 1218.94C255.202 1221.74 255.3 1224.47 254.952 1227.15C254.038 1234.17 251.464 1239.31 247.228 1242.57ZM248.274 1216.39L244.436 1215.89C242.779 1218.4 241.681 1221.72 241.144 1225.85C240.606 1229.99 240.791 1233.57 241.698 1236.59L245.625 1237.1C247.33 1233.99 248.438 1230.48 248.949 1226.55C249.46 1222.62 249.235 1219.24 248.274 1216.39ZM266.622 1226.44L266.593 1226.67C270.503 1228.48 272.179 1231.52 271.622 1235.81C271.339 1237.98 270.506 1239.85 269.121 1241.43C267.766 1243.01 266.331 1244.15 264.817 1244.86L254.643 1243.54L255.316 1238.36L262.991 1239.36C263.391 1239.08 263.878 1238.48 264.452 1237.55C265.026 1236.63 265.378 1235.66 265.51 1234.65C265.754 1232.78 265.264 1231.31 264.042 1230.24L260.427 1229.77L261.06 1224.9L267.272 1219.36L267.112 1218.84L258.188 1217.68L258.884 1212.32L269.639 1213.72C272.028 1215.12 273.072 1216.98 272.77 1219.3C272.538 1221.09 271.497 1222.69 269.648 1224.12L266.622 1226.44Z" fill="#542E67"/>
<path d="M227.683 1312.98L230.064 1295.74L223.467 1294.83L223.959 1291.26C229.962 1292.09 235.044 1292.79 241.077 1293.63L240.584 1297.19L233.987 1296.28L231.606 1313.52L227.683 1312.98ZM239.268 1299.65L242.626 1300.11L242.659 1301.84C244.039 1300.18 245.592 1300.13 247.077 1300.33C248.593 1300.54 249.967 1301.34 250.659 1302.25L248.589 1305.17C247.932 1304.45 247.294 1304.03 246.105 1303.86C244.203 1303.6 242.31 1304.37 241.937 1307.07L240.869 1314.8L237.244 1314.3L239.268 1299.65ZM263.375 1305.04L263.773 1303.03L267.25 1303.51L265.226 1318.16L261.808 1317.69L261.926 1315.53C260.856 1317.13 258.452 1317.65 256.814 1317.45C252.471 1316.89 249.631 1313.77 250.341 1308.63C251.039 1303.57 254.762 1301.39 259.038 1302.01C260.999 1302.28 262.744 1303.46 263.375 1305.04ZM258.917 1305.3C256.51 1304.97 254.352 1306.33 253.967 1309.13C253.581 1311.92 255.282 1313.85 257.69 1314.18C263.395 1314.97 264.623 1306.09 258.917 1305.3ZM282.71 1320.58L279.084 1320.08L280.143 1312.41C280.451 1310.18 279.467 1308.32 277.149 1308C274.92 1307.69 273.146 1309.35 272.838 1311.58L271.803 1319.07L268.208 1318.57L270.235 1303.89L273.475 1304.34L273.437 1306.37C275.124 1305.11 276.713 1304.58 278.555 1304.83C282.003 1305.31 284.409 1308.27 283.773 1312.88L282.71 1320.58ZM299.23 1309.47L296.881 1311.57C295.976 1310.45 294.833 1309.96 293.436 1309.76C291.712 1309.53 290.687 1309.93 290.56 1310.85C290.429 1311.8 291.217 1312.46 293.072 1312.83C295.812 1313.39 299.232 1314.5 298.694 1318.39C298.337 1320.98 295.919 1322.92 291.729 1322.34C289.411 1322.02 287.146 1321.31 285.315 1318.79L287.455 1316.45C288.335 1317.75 290.593 1318.94 292.224 1319.2C293.587 1319.41 294.963 1318.88 295.111 1317.81C295.25 1316.8 294.476 1316.27 292.412 1315.86C289.677 1315.27 286.518 1313.8 286.977 1310.48C287.445 1307.09 291.116 1306.38 293.791 1306.75C296.079 1307.07 297.741 1307.75 299.23 1309.47ZM308.971 1321C311.438 1321.34 313.39 1319.7 313.707 1317.41C314.023 1315.12 312.736 1313.04 310.121 1312.67C307.506 1312.31 305.702 1313.97 305.386 1316.26C305.07 1318.55 306.505 1320.65 308.971 1321ZM303.203 1329.65L299.578 1329.15L302.447 1308.37L305.835 1308.84L305.794 1310.9C307.149 1309.42 309.208 1308.97 310.873 1309.2C315.39 1309.83 317.927 1313.6 317.332 1317.91C316.741 1322.19 313.569 1325.2 308.873 1324.56C307.328 1324.34 305.105 1323.55 304.287 1321.8L303.203 1329.65ZM332.242 1314.55L332.64 1312.54L336.117 1313.02L334.094 1327.68L330.676 1327.2L330.793 1325.04C329.723 1326.65 327.32 1327.16 325.681 1326.97C321.338 1326.4 318.498 1323.28 319.208 1318.14C319.906 1313.09 323.63 1310.91 327.905 1311.53C329.866 1311.8 331.611 1312.98 332.242 1314.55ZM327.785 1314.81C325.377 1314.48 323.22 1315.85 322.834 1318.64C322.448 1321.43 324.15 1323.36 326.557 1323.7C332.263 1324.48 333.49 1315.6 327.785 1314.81ZM339.188 1313.45L342.546 1313.91L342.58 1315.64C343.959 1313.99 345.512 1313.93 346.998 1314.13C348.513 1314.34 349.887 1315.14 350.579 1316.05L348.509 1318.98C347.853 1318.25 347.214 1317.83 346.026 1317.66C344.124 1317.4 342.231 1318.17 341.857 1320.87L340.79 1328.6L337.164 1328.1L339.188 1313.45ZM365.415 1325.85L353.974 1324.27C353.961 1326.12 355.355 1327.64 357.911 1328C359.248 1328.18 361.072 1327.92 362.023 1327.17L364.025 1329.78C362.258 1331.17 359.625 1331.6 357.396 1331.29C352.344 1330.59 349.774 1327.06 350.422 1322.36C351.038 1317.9 354.513 1315.11 359.267 1315.77C364.171 1316.45 366.813 1319.9 365.415 1325.85ZM354.448 1321.28L362.353 1322.37C362.378 1320.44 361.023 1319.28 358.943 1318.99C356.982 1318.72 355.245 1319.45 354.448 1321.28ZM381.789 1334.26L378.163 1333.76L379.222 1326.1C379.53 1323.87 378.546 1322 376.228 1321.68C373.999 1321.38 372.224 1323.04 371.917 1325.27L370.882 1332.76L367.286 1332.26L369.314 1317.58L372.553 1318.03L372.516 1320.05C374.203 1318.8 375.792 1318.26 377.634 1318.52C381.081 1318.99 383.488 1321.96 382.852 1326.57L381.789 1334.26ZM388.293 1316.42L391.972 1316.53L391.397 1320.69L395.439 1321.25L395.008 1324.37L390.936 1323.81L390.062 1330.14C389.869 1331.53 390.547 1332.32 391.676 1332.48C392.241 1332.56 392.919 1332.47 393.491 1332.28L394.075 1335.51C392.977 1335.78 392.091 1335.84 390.987 1335.72C387.791 1335.4 385.961 1333.3 386.466 1329.64L387.34 1323.31L384.606 1322.93L385.037 1319.81L387.771 1320.19L388.293 1316.42ZM218.04 1341.13L221.398 1341.6L221.431 1343.33C222.811 1341.67 224.364 1341.61 225.849 1341.82C227.365 1342.03 228.739 1342.82 229.431 1343.73L227.361 1346.66C226.704 1345.93 226.066 1345.51 224.877 1345.35C222.975 1345.08 221.082 1345.85 220.709 1348.56L219.642 1356.28L216.016 1355.78L218.04 1341.13ZM244.267 1353.54L232.825 1351.96C232.813 1353.8 234.207 1355.33 236.763 1355.68C238.1 1355.87 239.923 1355.6 240.874 1354.86L242.876 1357.46C241.109 1358.86 238.477 1359.28 236.248 1358.97C231.196 1358.27 228.625 1354.74 229.274 1350.04C229.89 1345.59 233.364 1342.79 238.119 1343.45C243.023 1344.13 245.665 1347.58 244.267 1353.54ZM233.299 1348.96L241.204 1350.06C241.229 1348.12 239.875 1346.96 237.795 1346.68C235.833 1346.41 234.097 1347.14 233.299 1348.96ZM254.775 1357.93C257.242 1358.27 259.194 1356.63 259.51 1354.34C259.827 1352.05 258.54 1349.97 255.925 1349.61C253.309 1349.24 251.506 1350.9 251.189 1353.19C250.873 1355.48 252.309 1357.59 254.775 1357.93ZM249.007 1366.58L245.381 1366.08L248.251 1345.3L251.639 1345.77L251.597 1347.83C252.952 1346.35 255.012 1345.91 256.677 1346.14C261.194 1346.76 263.731 1350.53 263.136 1354.84C262.545 1359.12 259.373 1362.14 254.677 1361.49C253.132 1361.27 250.909 1360.48 250.091 1358.73L249.007 1366.58ZM273.76 1348.53C278.426 1349.17 280.951 1353.03 280.372 1357.22C279.789 1361.44 276.435 1364.46 271.68 1363.8C266.925 1363.15 264.544 1359.34 265.127 1355.12C265.706 1350.93 269.094 1347.88 273.76 1348.53ZM273.334 1351.83C270.719 1351.47 269.056 1353.42 268.753 1355.62C268.445 1357.85 269.495 1360.11 272.14 1360.48C274.785 1360.84 276.409 1358.95 276.717 1356.72C277.021 1354.52 275.771 1352.17 273.334 1351.83ZM283.889 1350.23L287.247 1350.69L287.281 1352.42C288.66 1350.77 290.213 1350.71 291.699 1350.91C293.214 1351.12 294.588 1351.92 295.28 1352.83L293.21 1355.76C292.554 1355.03 291.915 1354.61 290.727 1354.44C288.825 1354.18 286.932 1354.95 286.558 1357.65L285.491 1365.38L281.865 1364.88L283.889 1350.23ZM299.706 1348.6L303.385 1348.71L302.811 1352.87L306.852 1353.43L306.421 1356.55L302.35 1355.99L301.475 1362.32C301.283 1363.71 301.961 1364.5 303.09 1364.66C303.655 1364.74 304.333 1364.65 304.905 1364.46L305.488 1367.69C304.391 1367.96 303.504 1368.02 302.401 1367.9C299.205 1367.58 297.375 1365.48 297.88 1361.82L298.754 1355.49L296.02 1355.11L296.451 1351.99L299.185 1352.37L299.706 1348.6ZM313.207 1354.22L311.175 1368.93L307.549 1368.43L309.581 1353.72L313.207 1354.22ZM309.817 1349.6C309.427 1352.42 313.706 1353.01 314.096 1350.19C314.486 1347.37 310.207 1346.78 309.817 1349.6ZM328.869 1371.37L325.244 1370.87L326.303 1363.2C326.611 1360.97 325.626 1359.11 323.308 1358.79C321.08 1358.48 319.305 1360.15 318.997 1362.38L317.963 1369.87L314.367 1369.37L316.395 1354.69L319.634 1355.14L319.597 1357.16C321.284 1355.91 322.872 1355.37 324.715 1355.63C328.162 1356.1 330.569 1359.07 329.933 1363.67L328.869 1371.37ZM344.004 1358.9L345.715 1357.25L348.11 1359.64L346.189 1361.5C347.141 1362.93 347.356 1364.45 347.135 1366.05C346.884 1367.86 345.848 1370.33 343.289 1371.09C345.557 1372.65 345.909 1374.48 345.651 1376.35C345.092 1380.4 341.657 1382.47 337.407 1381.88C333.158 1381.29 330.335 1378.27 330.881 1374.31L334.477 1374.81C334.214 1376.71 335.795 1378.2 337.875 1378.49C339.955 1378.78 341.746 1377.87 342.025 1375.85C342.304 1373.83 340.53 1372.65 338.717 1372.4C334.14 1371.77 331.673 1368.58 332.305 1364C332.938 1359.43 336.66 1357.03 340.761 1357.6C341.92 1357.76 343.088 1358.07 344.004 1358.9ZM340.305 1360.9C338.195 1360.61 336.254 1361.94 335.901 1364.5C335.548 1367.05 337.062 1368.81 339.172 1369.1C341.253 1369.39 343.19 1368.08 343.539 1365.55C343.888 1363.03 342.386 1361.19 340.305 1360.9ZM367.635 1363.86L368.033 1361.85L371.51 1362.33L369.486 1376.98L366.069 1376.51L366.186 1374.35C365.116 1375.95 362.712 1376.47 361.074 1376.27C356.731 1375.7 353.891 1372.59 354.601 1367.45C355.299 1362.39 359.022 1360.21 363.298 1360.83C365.259 1361.1 367.004 1362.28 367.635 1363.86ZM363.177 1364.12C360.77 1363.79 358.613 1365.15 358.227 1367.95C357.841 1370.74 359.543 1372.67 361.95 1373C367.656 1373.79 368.883 1364.91 363.177 1364.12ZM386.97 1379.4L383.344 1378.9L384.404 1371.23C384.711 1369 383.727 1367.14 381.409 1366.82C379.18 1366.51 377.406 1368.17 377.098 1370.4L376.064 1377.89L372.468 1377.39L374.496 1362.71L377.735 1363.16L377.698 1365.18C379.385 1363.93 380.973 1363.4 382.816 1363.65C386.263 1364.13 388.669 1367.09 388.033 1371.7L386.97 1379.4ZM398.793 1369.19C396.475 1368.87 394.407 1370.25 394.042 1372.89C393.689 1375.45 395.289 1377.46 397.607 1377.78C399.895 1378.09 402.087 1376.7 402.452 1374.06C402.805 1371.5 401.082 1369.51 398.793 1369.19ZM404.545 1360.66L408.171 1361.16L405.301 1381.93L401.913 1381.46L401.955 1379.41C400.583 1381.01 398.688 1381.35 396.905 1381.1C392.596 1380.51 389.751 1377.21 390.416 1372.39C391.114 1367.34 394.655 1365.17 398.934 1365.76C400.48 1365.97 402.772 1367.13 403.424 1368.77L404.545 1360.66ZM228.754 1401.69L228.717 1401.95L224.052 1401.31L218.95 1393.52L215.176 1393L214.215 1399.95L210.292 1399.41L213.17 1378.58C216.469 1379.03 219.763 1379.52 223.062 1379.97C227.961 1380.68 230.095 1384.31 229.598 1387.9C229.204 1390.76 227.499 1393.46 223.435 1393.71L228.754 1401.69ZM222.557 1383.63L216.584 1382.8L215.664 1389.46L221.637 1390.29C224.134 1390.63 225.433 1389.11 225.663 1387.45C225.893 1385.79 225.024 1383.97 222.557 1383.63ZM243.025 1382.31C250.187 1383.3 252.993 1389.29 252.183 1394.72C251.38 1400.09 247.338 1405.01 240.028 1404C232.717 1402.99 230.056 1397.26 230.811 1391.8C231.567 1386.33 235.833 1381.31 243.025 1382.31ZM242.532 1385.87C237.628 1385.2 235.062 1388.87 234.666 1392.39C234.284 1395.82 235.621 1399.73 240.525 1400.41C245.428 1401.08 247.78 1397.65 248.311 1394.24C248.855 1390.75 247.435 1386.55 242.532 1385.87ZM257.572 1405.94L253.679 1405.4L256.553 1384.6L260.446 1385.14L257.572 1405.94ZM277.714 1404.39L279.822 1407.11C277.898 1408.54 276.025 1408.94 273.856 1408.64C269.606 1408.06 266.423 1405.01 267.141 1399.81C267.859 1394.61 271.749 1392.54 275.999 1393.13C278.079 1393.42 279.601 1394.24 280.989 1396.03L278.368 1398.12C277.613 1397.23 276.596 1396.7 275.586 1396.56C273.149 1396.22 271.12 1397.76 270.767 1400.31C270.381 1403.11 272.077 1404.86 274.336 1405.17C275.495 1405.33 276.699 1405.16 277.714 1404.39ZM284.025 1388.43L287.621 1388.92L284.751 1409.7L281.155 1409.2L284.025 1388.43ZM301.163 1399.09L301.561 1397.09L305.038 1397.57L303.014 1412.22L299.596 1411.75L299.714 1409.58C298.644 1411.19 296.24 1411.71 294.602 1411.51C290.259 1410.94 287.419 1407.82 288.129 1402.68C288.827 1397.63 292.55 1395.45 296.826 1396.07C298.787 1396.34 300.532 1397.52 301.163 1399.09ZM296.705 1399.35C294.298 1399.02 292.14 1400.39 291.755 1403.18C291.369 1405.98 293.07 1407.91 295.478 1408.24C301.183 1409.03 302.411 1400.14 296.705 1399.35ZM308.108 1397.99L311.467 1398.46L311.5 1400.19C312.88 1398.53 314.432 1398.47 315.918 1398.68C317.434 1398.89 318.808 1399.68 319.499 1400.59L317.43 1403.52C316.773 1402.79 316.135 1402.37 314.946 1402.21C313.044 1401.94 311.151 1402.71 310.778 1405.42L309.71 1413.14L306.085 1412.64L308.108 1397.99ZM324.628 1400.21L322.596 1414.92L318.97 1414.42L321.002 1399.71L324.628 1400.21ZM321.238 1395.6C320.848 1398.42 325.127 1399.01 325.517 1396.19C325.907 1393.36 321.628 1392.77 321.238 1395.6ZM329.904 1397.19L333.583 1397.3L333.008 1401.46L337.05 1402.02L336.619 1405.14L332.548 1404.58L331.673 1410.91C331.48 1412.3 332.159 1413.09 333.288 1413.25C333.852 1413.33 334.531 1413.24 335.103 1413.05L335.686 1416.28C334.589 1416.55 333.702 1416.61 332.599 1416.49C329.402 1416.17 327.572 1414.07 328.077 1410.41L328.952 1404.08L326.218 1403.7L326.649 1400.58L329.383 1400.96L329.904 1397.19ZM350.848 1403.9L354.86 1404.45L343.045 1423.99L339.063 1423.44L342.676 1417.45L338.812 1402.23L343.032 1402.82L344.386 1409.45L345.213 1413.78L347.287 1409.94L350.848 1403.9Z" fill="black" fill-opacity="0.7"/>
</g>
</g>
<g filter="url(#filter3_d_669_13911)">
<g clip-path="url(#clip3_669_13911)">
<rect x="787" y="1423.66" width="456.89" height="462.66" rx="27" transform="rotate(-19.3859 787 1423.66)" fill="white"/>
<rect x="850.383" y="1497.02" width="386" height="335.32" rx="24" transform="rotate(-19.3859 850.383 1497.02)" fill="#FDF3EC"/>
<path d="M963.431 1542.54L955.346 1545.46C952.773 1544.25 950.6 1542.52 948.827 1540.25C947.082 1537.98 945.746 1535.56 944.82 1532.99C942.448 1526.42 942.393 1520.7 944.655 1515.83L952.74 1512.91C955.285 1514.13 957.444 1515.87 959.217 1518.13C960.98 1520.37 962.319 1522.76 963.236 1525.3C965.639 1531.96 965.704 1537.7 963.431 1542.54ZM952.372 1518.79L948.731 1520.1C948.406 1523.09 948.951 1526.54 950.366 1530.47C951.782 1534.39 953.585 1537.48 955.776 1539.76L959.501 1538.41C959.594 1534.87 958.969 1531.24 957.625 1527.51C956.281 1523.79 954.53 1520.88 952.372 1518.79ZM972.557 1505.76L972.309 1526.42L978.574 1524.16L975.794 1516.46L981.297 1514.47L988.2 1533.61L982.698 1535.59L980.483 1529.45L972.652 1532.28C969.739 1531.9 967.804 1530.38 966.847 1527.72C966.409 1526.51 966.256 1523.97 966.389 1520.09L966.758 1507.86L972.557 1505.76Z" fill="#B97C59"/>
<path d="M974.149 1596.93L971.716 1599.51C970.638 1598.61 968.392 1598.19 966.241 1598.95C963.468 1599.93 962.546 1601.56 963.064 1603.03C963.671 1604.75 965.878 1604.52 968.355 1603.96C972.666 1603.02 976.893 1602.74 978.556 1607.47C980.109 1611.88 976.871 1615.15 972.457 1616.71C968.41 1618.13 964.859 1617.98 962.113 1614.87L964.658 1612.17C966.302 1614.04 968.933 1614.19 971.338 1613.35C973.687 1612.52 975.606 1610.92 974.849 1608.77C974.192 1606.9 971.97 1606.83 969.239 1607.47C965.023 1608.41 960.909 1608.65 959.345 1604.21C957.911 1600.13 961.342 1597.05 964.983 1595.74C968.068 1594.65 971.574 1594.4 974.149 1596.93ZM991.459 1604.9L994.576 1606.35C993.521 1608.5 992.042 1609.72 989.976 1610.45C985.929 1611.87 981.705 1610.62 979.963 1605.67C978.22 1600.72 980.731 1597.1 984.778 1595.67C986.759 1594.98 988.486 1595 990.542 1595.97L989.17 1599.03C988.09 1598.58 986.942 1598.57 985.98 1598.91C983.659 1599.72 982.559 1602.02 983.415 1604.45C984.351 1607.11 986.66 1607.89 988.811 1607.13C989.915 1606.75 990.909 1606.05 991.459 1604.9ZM1003.44 1591.71L1002.87 1589.75L1006.19 1588.59L1011.1 1602.54L1007.84 1603.68L1006.95 1601.7C1006.74 1603.62 1004.84 1605.18 1003.29 1605.76C999.171 1607.24 995.218 1605.77 993.496 1600.87C991.803 1596.06 994.114 1592.42 998.199 1591.01C1000.07 1590.36 1002.16 1590.61 1003.44 1591.71ZM999.596 1593.99C997.304 1594.8 996.012 1597 996.948 1599.66C997.884 1602.32 1000.28 1603.26 1002.57 1602.45C1008.01 1600.54 1005.03 1592.08 999.596 1593.99ZM1007.06 1581.73L1010.48 1580.52L1017.44 1600.3L1014.02 1601.51L1007.06 1581.73ZM1027.18 1583.36L1026.61 1581.4L1029.93 1580.23L1034.83 1594.18L1031.58 1595.33L1030.69 1593.35C1030.48 1595.27 1028.58 1596.83 1027.03 1597.41C1022.91 1598.89 1018.96 1597.42 1017.23 1592.52C1015.54 1587.71 1017.85 1584.07 1021.94 1582.66C1023.81 1582 1025.9 1582.25 1027.18 1583.36ZM1023.34 1585.64C1021.04 1586.44 1019.75 1588.65 1020.69 1591.31C1021.62 1593.97 1024.02 1594.9 1026.31 1594.1C1031.75 1592.19 1028.77 1583.72 1023.34 1585.64ZM1041.31 1579.47C1039.14 1580.23 1037.85 1582.53 1038.7 1584.97C1039.59 1587.49 1042.01 1588.41 1044.19 1587.65C1046.4 1586.87 1047.57 1584.58 1046.71 1582.15C1045.82 1579.63 1043.52 1578.69 1041.31 1579.47ZM1030.52 1573.47L1033.97 1572.26L1036.69 1579.98C1037.01 1578.25 1039.02 1576.65 1040.49 1576.13C1044.57 1574.7 1048.47 1576.12 1050.16 1580.93C1051.78 1585.52 1049.65 1589.32 1045.54 1590.76C1043.85 1591.36 1041.92 1591.4 1040.26 1590.11L1040.71 1592.12L1037.48 1593.25L1030.52 1573.47ZM1048.21 1567.25L1051.63 1566.04L1058.59 1585.82L1055.17 1587.03L1048.21 1567.25ZM1073.43 1574.15L1062.53 1577.98C1063.36 1579.63 1065.3 1580.35 1067.74 1579.49C1069.01 1579.04 1070.51 1577.97 1071.01 1576.87L1073.99 1578.28C1073.05 1580.32 1070.91 1581.9 1068.78 1582.65C1063.97 1584.34 1060.07 1582.38 1058.5 1577.91C1057 1573.66 1058.81 1569.59 1063.34 1568C1068.01 1566.35 1071.94 1568.21 1073.43 1574.15ZM1061.58 1575.1L1069.11 1572.45C1068.24 1570.72 1066.51 1570.32 1064.53 1571.01C1062.66 1571.67 1061.45 1573.11 1061.58 1575.1ZM1090.46 1560.55L1089.34 1563.49C1088.02 1562.91 1086.77 1562.99 1085.44 1563.46C1083.8 1564.04 1083.08 1564.87 1083.39 1565.75C1083.7 1566.65 1084.7 1566.87 1086.53 1566.36C1089.22 1565.6 1092.77 1565.02 1094.07 1568.73C1094.94 1571.19 1093.68 1574.02 1089.68 1575.42C1087.48 1576.2 1085.14 1576.61 1082.36 1575.2L1083.19 1572.14C1084.57 1572.9 1087.12 1572.92 1088.69 1572.4C1090 1571.97 1090.98 1570.87 1090.62 1569.85C1090.28 1568.89 1089.35 1568.77 1087.33 1569.35C1084.62 1570.08 1081.14 1570.22 1080.03 1567.05C1078.89 1563.83 1081.84 1561.52 1084.38 1560.62C1086.56 1559.86 1088.35 1559.7 1090.46 1560.55ZM1099.28 1555.51C1103.73 1553.94 1107.74 1556.22 1109.15 1560.21C1110.56 1564.23 1108.96 1568.45 1104.43 1570.04C1099.9 1571.64 1096.04 1569.34 1094.63 1565.32C1093.22 1561.33 1094.84 1557.07 1099.28 1555.51ZM1100.42 1558.64C1097.93 1559.52 1097.34 1562.01 1098.08 1564.1C1098.83 1566.23 1100.8 1567.76 1103.32 1566.87C1105.83 1565.99 1106.41 1563.56 1105.66 1561.44C1104.93 1559.34 1102.74 1557.82 1100.42 1558.64ZM1107.02 1546.55L1110.44 1545.35L1117.4 1565.13L1113.98 1566.33L1107.02 1546.55ZM1115.59 1550.09L1119.05 1548.87L1121.61 1556.17C1122.36 1558.3 1124.09 1559.5 1126.3 1558.72C1128.42 1557.98 1129.24 1555.69 1128.49 1553.56L1125.98 1546.43L1129.4 1545.23L1134.32 1559.21L1131.24 1560.29L1130.34 1558.48C1129.4 1560.4 1128.31 1561.55 1126.35 1562.23C1123.02 1563.41 1119.7 1561.75 1118.17 1557.42L1115.59 1550.09ZM1132.61 1540.09L1135.93 1538.51L1137.33 1542.47L1141.18 1541.12L1142.22 1544.09L1138.34 1545.45L1140.46 1551.48C1140.93 1552.81 1141.9 1553.2 1142.97 1552.82C1143.51 1552.63 1144.07 1552.25 1144.49 1551.81L1146.49 1554.42C1145.64 1555.16 1144.88 1555.62 1143.84 1556.02C1140.85 1557.2 1138.27 1556.17 1137.04 1552.69L1134.92 1546.66L1132.32 1547.57L1131.27 1544.6L1133.87 1543.69L1132.61 1540.09ZM1147.18 1538.91L1152.11 1552.92L1148.66 1554.13L1143.73 1540.12L1147.18 1538.91ZM1142.06 1536.35C1143 1539.04 1147.08 1537.61 1146.13 1534.92C1145.19 1532.23 1141.11 1533.67 1142.06 1536.35ZM1157.1 1535.16C1161.54 1533.6 1165.56 1535.88 1166.96 1539.87C1168.37 1543.89 1166.77 1548.11 1162.25 1549.7C1157.72 1551.29 1153.86 1548.99 1152.44 1544.98C1151.04 1540.99 1152.66 1536.73 1157.1 1535.16ZM1158.23 1538.3C1155.74 1539.17 1155.16 1541.67 1155.89 1543.76C1156.64 1545.88 1158.61 1547.42 1161.13 1546.53C1163.65 1545.64 1164.23 1543.21 1163.48 1541.09C1162.74 1539 1160.55 1537.48 1158.23 1538.3ZM1185.52 1541.16L1182.07 1542.38L1179.5 1535.07C1178.75 1532.95 1177.02 1531.75 1174.81 1532.52C1172.69 1533.27 1171.88 1535.56 1172.62 1537.68L1175.13 1544.82L1171.71 1546.02L1166.79 1532.04L1169.87 1530.96L1170.77 1532.77C1171.69 1530.89 1172.86 1529.68 1174.61 1529.06C1177.9 1527.91 1181.39 1529.45 1182.94 1533.83L1185.52 1541.16ZM1195.12 1523.73L1193.99 1526.67C1192.67 1526.08 1191.43 1526.17 1190.1 1526.64C1188.46 1527.21 1187.73 1528.04 1188.04 1528.92C1188.36 1529.82 1189.36 1530.04 1191.18 1529.53C1193.88 1528.77 1197.42 1528.19 1198.73 1531.9C1199.59 1534.36 1198.33 1537.19 1194.34 1538.6C1192.13 1539.37 1189.8 1539.78 1187.01 1538.38L1187.85 1535.32C1189.22 1536.07 1191.78 1536.1 1193.34 1535.58C1194.65 1535.15 1195.63 1534.04 1195.27 1533.02C1194.94 1532.06 1194 1531.94 1191.98 1532.53C1189.28 1533.25 1185.8 1533.4 1184.69 1530.23C1183.55 1527 1186.49 1524.69 1189.04 1523.8C1191.22 1523.03 1193.01 1522.88 1195.12 1523.73ZM983.713 1658.82L980.26 1660.03L976.486 1649.31L973.883 1650.22L972.817 1647.19L975.421 1646.28L975.092 1645.34C973.778 1641.61 975.689 1639 978.491 1638.01C979.707 1637.58 981.12 1637.53 982.511 1637.87L982.144 1640.89C981.239 1640.67 980.47 1640.65 979.762 1640.9C978.574 1641.32 977.947 1642.43 978.545 1644.13L978.873 1645.06L982.977 1643.62L984.042 1646.65L979.939 1648.09L983.713 1658.82ZM990.938 1640.28C995.381 1638.71 999.394 1640.99 1000.8 1644.98C1002.21 1649 1000.61 1653.22 996.084 1654.81C991.557 1656.41 987.695 1654.11 986.281 1650.09C984.877 1646.1 986.495 1641.84 990.938 1640.28ZM992.071 1643.41C989.581 1644.28 988.996 1646.78 989.733 1648.87C990.48 1651 992.451 1652.53 994.969 1651.64C997.488 1650.76 998.064 1648.33 997.317 1646.21C996.58 1644.11 994.392 1642.59 992.071 1643.41ZM1000.72 1637.15L1003.92 1636.03L1004.74 1637.55C1005.21 1635.45 1006.56 1634.68 1007.98 1634.19C1009.42 1633.68 1011.01 1633.76 1012.04 1634.25L1011.54 1637.8C1010.62 1637.45 1009.86 1637.37 1008.73 1637.77C1006.92 1638.41 1005.59 1639.96 1006.49 1642.53L1009.08 1649.89L1005.63 1651.1L1000.72 1637.15ZM1016.66 1624.99L1020.09 1623.79L1027.05 1643.57L1023.62 1644.77L1016.66 1624.99ZM1031.62 1625.96C1036.06 1624.4 1040.07 1626.68 1041.48 1630.67C1042.89 1634.68 1041.29 1638.91 1036.76 1640.5C1032.24 1642.09 1028.37 1639.79 1026.96 1635.77C1025.56 1631.78 1027.17 1627.53 1031.62 1625.96ZM1032.75 1629.09C1030.26 1629.97 1029.68 1632.47 1030.41 1634.56C1031.16 1636.68 1033.13 1638.22 1035.65 1637.33C1038.17 1636.44 1038.74 1634.01 1038 1631.89C1037.26 1629.8 1035.07 1628.28 1032.75 1629.09ZM1054.54 1629.35L1057.65 1630.79C1056.6 1632.95 1055.12 1634.17 1053.05 1634.89C1049.01 1636.32 1044.78 1635.07 1043.04 1630.12C1041.3 1625.16 1043.81 1621.55 1047.86 1620.12C1049.84 1619.42 1051.56 1619.45 1053.62 1620.41L1052.25 1623.47C1051.17 1623.03 1050.02 1623.02 1049.06 1623.36C1046.74 1624.17 1045.64 1626.47 1046.49 1628.9C1047.43 1631.56 1049.74 1632.34 1051.89 1631.58C1052.99 1631.19 1053.99 1630.49 1054.54 1629.35ZM1066.52 1616.16L1065.95 1614.2L1069.26 1613.03L1074.17 1626.99L1070.92 1628.13L1070.03 1626.15C1069.82 1628.07 1067.92 1629.63 1066.37 1630.21C1062.25 1631.69 1058.3 1630.22 1056.57 1625.32C1054.88 1620.51 1057.19 1616.87 1061.28 1615.46C1063.15 1614.81 1065.24 1615.06 1066.52 1616.16ZM1062.67 1618.44C1060.38 1619.24 1059.09 1621.45 1060.03 1624.11C1060.96 1626.77 1063.36 1627.71 1065.65 1626.9C1071.09 1624.99 1068.11 1616.53 1062.67 1618.44ZM1070.14 1606.18L1073.56 1604.97L1080.52 1624.75L1077.1 1625.96L1070.14 1606.18ZM1095.98 1605.8L1095.41 1603.83L1098.72 1602.67L1103.63 1616.62L1100.38 1617.76L1099.49 1615.79C1099.28 1617.71 1097.38 1619.27 1095.83 1619.84C1091.71 1621.32 1087.76 1619.85 1086.03 1614.96C1084.34 1610.15 1086.65 1606.5 1090.74 1605.1C1092.61 1604.44 1094.7 1604.69 1095.98 1605.8ZM1092.13 1608.07C1089.84 1608.88 1088.55 1611.08 1089.49 1613.74C1090.42 1616.4 1092.82 1617.34 1095.11 1616.53C1100.54 1614.62 1097.57 1606.16 1092.13 1608.07ZM1120.28 1610.76L1116.83 1611.98L1114.26 1604.67C1113.51 1602.55 1111.79 1601.35 1109.58 1602.12C1107.46 1602.87 1106.64 1605.16 1107.39 1607.28L1109.9 1614.41L1106.47 1615.62L1101.55 1601.64L1104.64 1600.55L1105.53 1602.37C1106.46 1600.49 1107.62 1599.28 1109.38 1598.66C1112.66 1597.51 1116.16 1599.04 1117.7 1603.43L1120.28 1610.76ZM1126.12 1596.27C1123.91 1597.05 1122.71 1599.22 1123.59 1601.74C1124.45 1604.17 1126.79 1605.23 1129 1604.45C1131.18 1603.68 1132.49 1601.44 1131.6 1598.92C1130.74 1596.49 1128.3 1595.5 1126.12 1596.27ZM1127.33 1586.05L1130.78 1584.84L1137.74 1604.62L1134.51 1605.75L1133.61 1603.91C1133.12 1605.96 1131.59 1607.13 1129.9 1607.73C1125.79 1609.17 1121.75 1607.54 1120.14 1602.96C1118.45 1598.14 1120.6 1594.59 1124.67 1593.15C1126.14 1592.64 1128.72 1592.62 1130.04 1593.78L1127.33 1586.05ZM998.509 1684.96L999.278 1682.71L1002.5 1683.74L1001.64 1686.27C1003.15 1687.11 1004.03 1688.36 1004.57 1689.89C1005.18 1691.61 1005.38 1694.27 1003.46 1696.13C1006.19 1696.47 1007.34 1697.94 1007.97 1699.73C1009.32 1703.57 1007.21 1706.99 1003.17 1708.41C999.121 1709.83 995.226 1708.44 993.902 1704.67L997.326 1703.47C997.964 1705.28 1000.05 1705.88 1002.03 1705.18C1004.01 1704.49 1005.19 1702.86 1004.51 1700.94C1003.84 1699.02 1001.72 1698.78 999.991 1699.38C995.633 1700.92 991.98 1699.21 990.447 1694.85C988.913 1690.5 991.127 1686.66 995.032 1685.29C996.136 1684.9 997.317 1684.65 998.509 1684.96ZM996.137 1688.43C994.128 1689.14 993.014 1691.22 993.871 1693.65C994.727 1696.08 996.876 1696.95 998.886 1696.24C1000.87 1695.54 1001.99 1693.5 1001.14 1691.09C1000.3 1688.68 998.118 1687.73 996.137 1688.43ZM1002.39 1676.66L1005.81 1675.45L1012.77 1695.24L1009.35 1696.44L1002.39 1676.66ZM1017.34 1677.63C1021.79 1676.07 1025.8 1678.34 1027.2 1682.33C1028.62 1686.35 1027.02 1690.57 1022.49 1692.17C1017.96 1693.76 1014.1 1691.46 1012.69 1687.44C1011.28 1683.45 1012.9 1679.19 1017.34 1677.63ZM1018.48 1680.76C1015.99 1681.64 1015.4 1684.13 1016.14 1686.23C1016.89 1688.35 1018.86 1689.88 1021.37 1689C1023.89 1688.11 1024.47 1685.68 1023.72 1683.56C1022.99 1681.46 1020.8 1679.94 1018.48 1680.76ZM1035.87 1674.67C1033.69 1675.44 1032.4 1677.74 1033.26 1680.17C1034.14 1682.69 1036.57 1683.62 1038.75 1682.85C1040.95 1682.08 1042.12 1679.79 1041.26 1677.35C1040.38 1674.84 1038.08 1673.9 1035.87 1674.67ZM1025.08 1668.68L1028.53 1667.46L1031.25 1675.19C1031.56 1673.45 1033.57 1671.86 1035.04 1671.34C1039.12 1669.9 1043.02 1671.33 1044.72 1676.14C1046.33 1680.72 1044.2 1684.53 1040.1 1685.97C1038.4 1686.57 1036.47 1686.61 1034.81 1685.32L1035.26 1687.32L1032.04 1688.46L1025.08 1668.68ZM1056.44 1666.35L1055.88 1664.39L1059.19 1663.22L1064.1 1677.17L1060.85 1678.32L1059.96 1676.34C1059.74 1678.26 1057.84 1679.82 1056.3 1680.4C1052.18 1681.88 1048.22 1680.41 1046.5 1675.51C1044.81 1670.7 1047.12 1667.06 1051.2 1665.65C1053.07 1664.99 1055.16 1665.24 1056.44 1666.35ZM1052.6 1668.63C1050.31 1669.43 1049.02 1671.64 1049.95 1674.3C1050.89 1676.96 1053.29 1677.89 1055.58 1677.09C1061.01 1675.18 1058.03 1666.71 1052.6 1668.63ZM1060.06 1656.36L1063.49 1655.16L1070.45 1674.94L1067.02 1676.15L1060.06 1656.36ZM1091.92 1667.39L1088.47 1668.6L1085.84 1661.13C1085.19 1659.29 1083.64 1657.96 1081.74 1658.63C1079.88 1659.28 1079.36 1661.34 1080.01 1663.18L1082.64 1670.65L1079.18 1671.87L1074.26 1657.89L1077.46 1656.76L1078.31 1658.37C1078.55 1656.7 1079.99 1655.62 1081.32 1655.15C1082.99 1654.56 1084.89 1654.66 1086.36 1656.3C1086.91 1653.88 1088.33 1652.75 1090.14 1652.11C1094.1 1650.72 1096.91 1652.46 1098.38 1656.65L1101.03 1664.18L1097.58 1665.39L1094.93 1657.87C1094.28 1656.03 1092.97 1654.74 1091.1 1655.4C1089.23 1656.05 1088.64 1658.08 1089.29 1659.91L1091.92 1667.39ZM1111.27 1647.06L1110.71 1645.09L1114.02 1643.93L1118.93 1657.88L1115.67 1659.03L1114.79 1657.05C1114.57 1658.97 1112.67 1660.53 1111.13 1661.1C1107 1662.59 1103.05 1661.11 1101.33 1656.22C1099.64 1651.41 1101.95 1647.76 1106.03 1646.36C1107.9 1645.7 1109.99 1645.95 1111.27 1647.06ZM1107.43 1649.33C1105.14 1650.14 1103.85 1652.34 1104.78 1655C1105.72 1657.66 1108.12 1658.6 1110.41 1657.79C1115.84 1655.88 1112.86 1647.42 1107.43 1649.33ZM1116.94 1642.9L1120.14 1641.78L1120.96 1643.3C1121.43 1641.19 1122.79 1640.43 1124.2 1639.93C1125.64 1639.43 1127.23 1639.5 1128.26 1640L1127.76 1643.55C1126.84 1643.2 1126.08 1643.12 1124.95 1643.52C1123.14 1644.15 1121.81 1645.7 1122.72 1648.28L1125.31 1655.64L1121.85 1656.85L1116.94 1642.9ZM1127.08 1632.78L1130.53 1631.57L1134.55 1643L1137.28 1635.75L1141.41 1634.29L1141.48 1634.49L1138.03 1642.86L1147.02 1647.71L1147.11 1647.96L1142.95 1649.43L1135.27 1645.04L1137.49 1651.35L1134.04 1652.56L1127.08 1632.78ZM1160.5 1636.8L1149.61 1640.63C1150.44 1642.28 1152.38 1642.99 1154.81 1642.14C1156.09 1641.69 1157.59 1640.62 1158.09 1639.52L1161.07 1640.92C1160.13 1642.97 1157.99 1644.55 1155.86 1645.3C1151.05 1646.99 1147.15 1645.03 1145.58 1640.55C1144.08 1636.31 1145.89 1632.24 1150.42 1630.64C1155.09 1629 1159.02 1630.86 1160.5 1636.8ZM1148.66 1637.75L1156.19 1635.1C1155.32 1633.37 1153.59 1632.96 1151.61 1633.66C1149.74 1634.32 1148.53 1635.76 1148.66 1637.75ZM1159.83 1623.8L1163.15 1622.22L1164.55 1626.18L1168.4 1624.83L1169.44 1627.8L1165.56 1629.16L1167.68 1635.19C1168.15 1636.52 1169.12 1636.91 1170.19 1636.53C1170.73 1636.35 1171.29 1635.96 1171.71 1635.52L1173.71 1638.13C1172.86 1638.87 1172.1 1639.33 1171.06 1639.73C1168.07 1640.91 1165.49 1639.88 1164.26 1636.4L1162.14 1630.37L1159.54 1631.28L1158.49 1628.31L1161.09 1627.4L1159.83 1623.8ZM1182.52 1621.45L1181.39 1624.39C1180.07 1623.8 1178.83 1623.89 1177.5 1624.36C1175.86 1624.94 1175.13 1625.77 1175.44 1626.64C1175.76 1627.55 1176.76 1627.77 1178.58 1627.25C1181.27 1626.5 1184.82 1625.92 1186.12 1629.62C1186.99 1632.09 1185.73 1634.92 1181.74 1636.32C1179.53 1637.1 1177.19 1637.51 1174.41 1636.1L1175.24 1633.04C1176.62 1633.8 1179.17 1633.82 1180.74 1633.3C1182.05 1632.87 1183.03 1631.76 1182.67 1630.74C1182.33 1629.78 1181.4 1629.67 1179.38 1630.25C1176.68 1630.98 1173.2 1631.12 1172.08 1627.95C1170.95 1624.72 1173.89 1622.42 1176.44 1621.52C1178.61 1620.75 1180.41 1620.6 1182.52 1621.45Z" fill="black" fill-opacity="0.7"/>
</g>
</g>
<defs>
<filter id="filter0_d_669_13911" x="689" y="374.555" width="707.008" height="709.121" filterUnits="userSpaceOnUse" color-interpolation-filters="sRGB">
<feFlood flood-opacity="0" result="BackgroundImageFix"/>
<feColorMatrix in="SourceAlpha" type="matrix" values="0 0 0 0 0 0 0 0 0 0 0 0 0 0 0 0 0 0 127 0" result="hardAlpha"/>
<feOffset dy="20"/>
<feGaussianBlur stdDeviation="20"/>
<feComposite in2="hardAlpha" operator="out"/>
<feColorMatrix type="matrix" values="0 0 0 0 0 0 0 0 0 0 0 0 0 0 0 0 0 0 0.11 0"/>
<feBlend mode="normal" in2="BackgroundImageFix" result="effect1_dropShadow_669_13911"/>
<feBlend mode="normal" in="SourceGraphic" in2="effect1_dropShadow_669_13911" result="shape"/>
</filter>
<filter id="filter1_d_669_13911" x="28" y="131" width="619.004" height="623.527" filterUnits="userSpaceOnUse" color-interpolation-filters="sRGB">
<feFlood flood-opacity="0" result="BackgroundImageFix"/>
<feColorMatrix in="SourceAlpha" type="matrix" values="0 0 0 0 0 0 0 0 0 0 0 0 0 0 0 0 0 0 127 0" result="hardAlpha"/>
<feOffset dy="20"/>
<feGaussianBlur stdDeviation="20"/>
<feComposite in2="hardAlpha" operator="out"/>
<feColorMatrix type="matrix" values="0 0 0 0 0 0 0 0 0 0 0 0 0 0 0 0 0 0 0.11 0"/>
<feBlend mode="normal" in2="BackgroundImageFix" result="effect1_dropShadow_669_13911"/>
<feBlend mode="normal" in="SourceGraphic" in2="effect1_dropShadow_669_13911" result="shape"/>
</filter>
<filter id="filter2_d_669_13911" x="40" y="1029" width="595.902" height="600.826" filterUnits="userSpaceOnUse" color-interpolation-filters="sRGB">
<feFlood flood-opacity="0" result="BackgroundImageFix"/>
<feColorMatrix in="SourceAlpha" type="matrix" values="0 0 0 0 0 0 0 0 0 0 0 0 0 0 0 0 0 0 127 0" result="hardAlpha"/>
<feOffset dy="20"/>
<feGaussianBlur stdDeviation="20"/>
<feComposite in2="hardAlpha" operator="out"/>
<feColorMatrix type="matrix" values="0 0 0 0 0 0 0 0 0 0 0 0 0 0 0 0 0 0 0.11 0"/>
<feBlend mode="normal" in2="BackgroundImageFix" result="effect1_dropShadow_669_13911"/>
<feBlend mode="normal" in="SourceGraphic" in2="effect1_dropShadow_669_13911" result="shape"/>
</filter>
<filter id="filter3_d_669_13911" x="747" y="1252" width="664.559" height="668.084" filterUnits="userSpaceOnUse" color-interpolation-filters="sRGB">
<feFlood flood-opacity="0" result="BackgroundImageFix"/>
<feColorMatrix in="SourceAlpha" type="matrix" values="0 0 0 0 0 0 0 0 0 0 0 0 0 0 0 0 0 0 127 0" result="hardAlpha"/>
<feOffset dy="20"/>
<feGaussianBlur stdDeviation="20"/>
<feComposite in2="hardAlpha" operator="out"/>
<feColorMatrix type="matrix" values="0 0 0 0 0 0 0 0 0 0 0 0 0 0 0 0 0 0 0.11 0"/>
<feBlend mode="normal" in2="BackgroundImageFix" result="effect1_dropShadow_669_13911"/>
<feBlend mode="normal" in="SourceGraphic" in2="effect1_dropShadow_669_13911" result="shape"/>
</filter>
<clipPath id="clip0_669_13911">
<rect x="729" y="623" width="456.89" height="462.66" rx="27" transform="rotate(-30 729 623)" fill="white"/>
</clipPath>
<clipPath id="clip1_669_13911">
<rect x="159.055" y="151" width="456.886" height="462.658" rx="27" transform="rotate(11.3503 159.055 151)" fill="white"/>
</clipPath>
<clipPath id="clip2_669_13911">
<rect x="143.309" y="1049" width="456.89" height="462.66" rx="27" transform="rotate(7.86481 143.309 1049)" fill="white"/>
</clipPath>
<clipPath id="clip3_669_13911">
<rect x="787" y="1423.66" width="456.89" height="462.66" rx="27" transform="rotate(-19.3859 787 1423.66)" fill="white"/>
</clipPath>
</defs>
</svg>
