<svg width="157" height="50" viewBox="0 0 157 50" fill="none" xmlns="http://www.w3.org/2000/svg">
<rect width="157" height="50" rx="25" fill="white"/>
<path d="M83.0812 33.0788L83.1241 33.786C83.5736 33.2288 84.173 32.9717 84.9008 32.9717C86.1852 32.9717 86.8273 33.7003 86.8488 35.1574V39.2074H85.4787V35.2431C85.4787 34.8574 85.3931 34.5574 85.2219 34.386C85.0506 34.1931 84.7723 34.1074 84.4084 34.1074C83.8519 34.1074 83.4452 34.3645 83.1669 34.8574V39.2288H81.7969V33.1002H83.1027L83.0812 33.0788Z" fill="#0C6792"/>
<path d="M90.9385 39.3145C90.0609 39.3145 89.3545 39.036 88.8193 38.5003C88.2841 37.9431 88.0059 37.2145 88.0059 36.3145V36.1431C88.0059 35.5217 88.1343 34.986 88.3698 34.4931C88.6052 34.0217 88.9263 33.636 89.3545 33.3788C89.7826 33.1003 90.2535 32.9717 90.7887 32.9717C91.6235 32.9717 92.2657 33.2288 92.7152 33.7645C93.1648 34.3003 93.4002 35.0503 93.4002 36.0145V36.5717H89.3973C89.4401 37.086 89.6113 37.4717 89.911 37.7717C90.2107 38.0717 90.5746 38.2217 91.0241 38.2217C91.6449 38.2217 92.1587 37.9645 92.5654 37.4503L93.3146 38.1574C93.0791 38.5217 92.7366 38.8003 92.3299 39.0145C91.9232 39.2074 91.4523 39.3145 90.9599 39.3145H90.9385ZM90.7887 34.0645C90.4034 34.0645 90.1037 34.1931 89.8682 34.4717C89.6327 34.7288 89.4829 35.1145 89.4187 35.586H92.0302V35.4788C92.0088 35.0288 91.8804 34.6645 91.6663 34.4288C91.4523 34.1931 91.1526 34.0645 90.7673 34.0645H90.7887Z" fill="#0C6792"/>
<path d="M96.6521 35.0924L97.808 33.0781H99.3279L97.4655 36.0996L99.3921 39.2067H97.8723L96.6521 37.1067L95.432 39.2067H93.9121L95.8387 36.0996L93.9763 33.0781H95.4962L96.6307 35.0924H96.6521Z" fill="#0C6792"/>
<path d="M102.005 31.5781V33.0781H103.075V34.1067H102.005V37.5353C102.005 37.771 102.048 37.9424 102.133 38.0496C102.219 38.1567 102.39 38.1996 102.626 38.1996C102.776 38.1996 102.947 38.1996 103.097 38.1353V39.2067C102.776 39.2924 102.476 39.3353 102.198 39.3353C101.149 39.3353 100.614 38.7567 100.614 37.5781V34.1067H99.6074V33.0781H100.614V31.5781H101.984H102.005Z" fill="#0C6792"/>
<path d="M107.035 31.4716C107.035 31.2574 107.099 31.086 107.228 30.936C107.356 30.786 107.549 30.7217 107.806 30.7217C108.063 30.7217 108.255 30.786 108.384 30.936C108.512 31.086 108.598 31.2574 108.598 31.4716C108.598 31.6859 108.534 31.8574 108.384 31.9859C108.255 32.1145 108.063 32.2002 107.806 32.2002C107.549 32.2002 107.356 32.1359 107.228 31.9859C107.099 31.8574 107.035 31.6859 107.035 31.4716ZM108.491 39.1859H107.121V33.0574H108.491V39.1859Z" fill="#0C6792"/>
<path d="M113.414 37.536C113.414 37.3003 113.307 37.1074 113.114 36.9788C112.922 36.8503 112.579 36.7431 112.108 36.636C111.637 36.5288 111.252 36.4217 110.931 36.2717C110.246 35.9503 109.904 35.4574 109.904 34.836C109.904 34.3003 110.118 33.8717 110.567 33.5074C111.017 33.1431 111.573 32.9717 112.258 32.9717C112.986 32.9717 113.585 33.1431 114.035 33.5074C114.484 33.8717 114.72 34.3431 114.72 34.9217H113.35C113.35 34.6645 113.243 34.4288 113.05 34.2574C112.858 34.086 112.601 34.0003 112.28 34.0003C111.98 34.0003 111.723 34.0645 111.552 34.2145C111.359 34.3645 111.274 34.536 111.274 34.7717C111.274 34.986 111.359 35.1574 111.53 35.2645C111.702 35.3717 112.066 35.5003 112.601 35.6288C113.136 35.7574 113.564 35.886 113.864 36.0574C114.163 36.2288 114.399 36.4217 114.549 36.6574C114.699 36.8931 114.763 37.1717 114.763 37.4931C114.763 38.0503 114.527 38.5003 114.078 38.8431C113.628 39.186 113.029 39.3574 112.28 39.3574C111.787 39.3574 111.338 39.2717 110.931 39.0788C110.546 38.9074 110.225 38.6503 110.011 38.3288C109.796 38.0074 109.689 37.6645 109.689 37.3002H111.017C111.017 37.6217 111.166 37.8788 111.381 38.0503C111.616 38.2217 111.916 38.3074 112.28 38.3074C112.644 38.3074 112.922 38.2431 113.114 38.0931C113.307 37.9645 113.393 37.7717 113.393 37.5574L113.414 37.536Z" fill="#0C6792"/>
<path d="M120.134 33.0788L120.177 33.786C120.626 33.2288 121.226 32.9717 121.954 32.9717C123.238 32.9717 123.88 33.7003 123.901 35.1574V39.2074H122.531V35.2431C122.531 34.8574 122.446 34.5574 122.275 34.386C122.103 34.1931 121.825 34.1074 121.461 34.1074C120.905 34.1074 120.498 34.3645 120.22 34.8574V39.2288H118.85V33.1002H120.155L120.134 33.0788Z" fill="#0C6792"/>
<path d="M125.037 36.0788C125.037 35.4788 125.166 34.9431 125.401 34.4502C125.636 33.9788 125.979 33.5931 126.407 33.3359C126.835 33.0788 127.328 32.9502 127.884 32.9502C128.719 32.9502 129.383 33.2073 129.896 33.7431C130.41 34.2788 130.688 34.9859 130.731 35.8645V36.1859C130.731 36.7859 130.624 37.3216 130.389 37.8145C130.153 38.2859 129.832 38.6502 129.383 38.9288C128.954 39.1859 128.462 39.3145 127.884 39.3145C127.028 39.3145 126.321 39.0359 125.808 38.4573C125.294 37.8788 125.037 37.1073 125.037 36.1645V36.1002V36.0788ZM126.407 36.1859C126.407 36.8073 126.536 37.3002 126.792 37.6645C127.049 38.0288 127.413 38.2002 127.884 38.2002C128.355 38.2002 128.719 38.0288 128.976 37.6645C129.233 37.3002 129.361 36.7645 129.361 36.0788C129.361 35.4573 129.233 34.9645 128.954 34.6002C128.698 34.2359 128.334 34.0645 127.863 34.0645C127.392 34.0645 127.049 34.2359 126.792 34.6002C126.536 34.9645 126.386 35.5002 126.386 36.2073L126.407 36.1859Z" fill="#0C6792"/>
<path d="M137.281 37.2996L138.245 33.0781H139.593L137.923 39.2067H136.789L135.483 35.0067L134.199 39.2067H133.064L131.395 33.0781H132.743L133.728 37.2567L134.991 33.0781H136.018L137.281 37.2996Z" fill="#0C6792"/>
<path d="M98.0864 25.3L95.8387 18.1214H94.2119L92.007 25.3L89.5881 17.5H87.5117L90.9581 27.8071H92.8419L95.0039 20.5857L97.2088 27.8071H99.0925L102.518 17.5H100.462L98.0864 25.3Z" fill="#0C6792"/>
<path d="M108.447 17.2002C104.979 17.2002 102.967 19.8788 102.967 22.6431C102.967 25.4288 105 28.1073 108.447 28.1073C111.893 28.1073 113.927 25.4288 113.927 22.6645C113.927 19.9002 111.893 17.2002 108.447 17.2002ZM108.447 26.2645C106.477 26.2645 104.936 24.7216 104.936 22.6859C104.936 20.6073 106.477 19.0645 108.447 19.0645C110.416 19.0645 111.957 20.6073 111.957 22.6645C111.957 24.7216 110.416 26.2645 108.447 26.2645Z" fill="#0C6792"/>
<path d="M117.802 19.0216V17.5002H115.939V27.8073H117.909V22.2359C117.909 20.2002 118.872 19.1716 120.734 19.1716H120.863V17.2002C119.471 17.2002 118.38 17.8002 117.802 19.0216Z" fill="#0C6792"/>
<path d="M130.881 17.5001H128.484L124.46 21.5715V13.793H122.469V27.8073H124.46V22.5144L128.719 27.8073H131.01L126.3 22.043L130.881 17.5001Z" fill="#0C6792"/>
<path d="M135.997 21.6359C134.905 21.3359 134.156 20.9502 134.113 20.1359C134.113 19.4502 134.627 18.8073 135.59 18.8073C136.596 18.8073 137.089 19.3859 137.089 20.2002H139.036C138.887 17.9073 137.024 17.2002 135.611 17.2002C133.728 17.2002 132.144 18.3788 132.144 20.3288C132.144 21.8716 133.3 22.5573 134.734 23.0073C136.575 23.6073 137.345 23.9502 137.367 24.9788C137.367 25.8573 136.618 26.5216 135.676 26.5216C134.948 26.5216 133.942 26.1145 133.856 24.8502H131.908C131.994 27.2073 134.027 28.1288 135.654 28.1288C137.688 28.1288 139.358 26.7573 139.315 24.7645C139.251 22.5573 137.538 22.0859 135.975 21.6573" fill="#0C6792"/>
<path d="M47.6952 19.471C47.2243 18.4853 45.9185 17.3496 43.8635 17.3496C40.8666 17.3496 38.5762 19.6639 38.5762 22.8139C38.5762 25.6853 40.5455 28.2782 43.8635 28.2782C45.4904 28.2782 46.9674 27.5496 47.6952 26.1782V27.9782H49.6646V17.671H47.6952V19.4925V19.471ZM47.3741 24.3782C46.8604 25.5568 45.7473 26.4139 44.1846 26.4139C41.6801 26.4139 40.6098 24.3782 40.5884 22.8353C40.5884 20.8853 41.9798 19.171 44.1418 19.171C45.7901 19.171 46.946 20.0925 47.4384 21.2925C47.6738 21.7639 47.7595 22.2996 47.738 22.8353C47.738 23.371 47.6096 23.9068 47.3741 24.3782Z" fill="#1DA3DD"/>
<path d="M72.9784 19.471C72.5075 18.4853 71.2017 17.3496 69.1467 17.3496C66.1498 17.3496 63.8594 19.6639 63.8594 22.8139C63.8594 25.6853 65.8287 28.2782 69.1467 28.2782C70.7736 28.2782 72.2506 27.5496 72.9784 26.1782V27.9782H74.9478V17.671H72.9784V19.4925V19.471ZM72.6359 24.3782C72.1222 25.5568 71.0091 26.4139 69.4464 26.4139C66.9419 26.4139 65.8716 24.3782 65.8502 22.8353C65.8502 20.8853 67.2416 19.171 69.4036 19.171C71.0519 19.171 72.2078 20.0925 72.7002 21.2925C72.9356 21.7639 73.0213 22.2996 72.9998 22.8353C72.9998 23.371 72.8714 23.9068 72.6359 24.3782Z" fill="#1DA3DD"/>
<path d="M80.2555 13.9434H78.2862V17.6505H76.4238V19.1934H78.2862V27.9576H80.2555V19.1934H82.1179V17.6505H80.2555V13.9434Z" fill="#1DA3DD"/>
<path d="M85.694 13.9434H83.7246V16.0219H85.694V13.9434Z" fill="#1DA3DD"/>
<path d="M85.694 17.6504H83.7246V27.9575H85.694V17.6504Z" fill="#1DA3DD"/>
<path d="M61.9526 21.8075V17.6504H59.9832V23.1147C59.9832 24.8718 58.549 26.3075 56.7937 26.3075C55.0384 26.3075 53.6041 24.8718 53.6041 23.1147V17.6504H51.6348V23.1147C51.6348 25.9647 53.9466 28.279 56.7937 28.279C58.0138 28.279 59.1056 27.6361 59.9832 26.6932V28.2361C59.9832 30.2932 58.3135 31.9647 56.2585 31.9647H55.3595V33.9362H56.2585C59.4052 33.9362 61.9526 31.3861 61.9526 28.2361V22.4718H61.9098C61.9312 22.2361 61.9526 22.0218 61.9526 21.8075Z" fill="#1DA3DD"/>
<path d="M29.5146 16.5359L30.0898 17.1116C32.6025 19.6269 32.6025 23.7181 30.0898 26.2333L29.8022 26.5212C27.123 29.2032 22.794 29.2032 20.1148 26.5212C17.4357 23.8393 17.4357 19.5057 20.1148 16.8238L20.4024 16.5359C22.9151 14.0206 27.002 14.0206 29.5146 16.5359Z" fill="#75BBE7"/>
<path d="M32.5414 23.0924L35.7096 10.9639L23.5508 14.0496" fill="white"/>
<path d="M32.732 23.1356L32.3467 23.0284L35.4292 11.2427L23.5915 14.2427L23.5059 13.857L35.9858 10.6855L32.732 23.1356Z" fill="#0C6792"/>
<path d="M34.7458 14.6505L31.9844 11.9076L35.6234 10.9434L34.7458 14.6505Z" fill="#0C6792"/>
<path d="M32.0065 23.9716C32.8628 23.1145 32.8628 21.7216 32.0065 20.8431C31.1503 19.9859 29.7375 19.9859 28.8812 20.8431L26.3125 23.4145L29.4378 26.5431L32.0065 23.9716Z" fill="#75BBE7"/>
<path d="M29.4366 26.8649L25.9902 23.4149L28.7088 20.6935C29.1798 20.2435 29.7791 19.9863 30.4213 19.9863C31.0635 19.9863 31.6842 20.2435 32.1552 20.6935C32.6047 21.1435 32.8616 21.7649 32.8616 22.4292C32.8616 23.0935 32.6047 23.6935 32.1552 24.1435L29.4152 26.8863L29.4366 26.8649ZM26.6324 23.4149L29.4152 26.2006L31.8127 23.8006C32.1766 23.4363 32.3906 22.922 32.3906 22.4078C32.3906 21.872 32.1766 21.3792 31.8127 21.0149C31.0421 20.2435 29.8005 20.2435 29.0299 21.0149L26.6324 23.4149Z" fill="#076790"/>
<path d="M25.7546 17.7363C26.6109 16.8791 26.6109 15.4863 25.7546 14.6077C24.8984 13.7506 23.4855 13.7506 22.6293 14.6077L20.0605 17.1791L23.1859 20.3077L25.7546 17.7363Z" fill="#75BBE7"/>
<path d="M23.1866 20.6285L19.7402 17.1785L22.4802 14.4357C23.4221 13.4928 24.9848 13.4928 25.9266 14.4357C26.3762 14.8857 26.633 15.5071 26.633 16.1714C26.633 16.8357 26.3762 17.4357 25.9266 17.8857L23.1866 20.6285ZM20.4038 17.1785L23.1866 19.9642L25.5841 17.5642C26.3548 16.7928 26.3548 15.5285 25.5841 14.7571C24.8135 13.9857 23.572 13.9857 22.8013 14.7571L20.4038 17.1571V17.1785Z" fill="#076790"/>
<path d="M28.8816 20.8427C29.7378 19.9856 29.7378 18.5713 28.8816 17.7141C28.0253 16.857 26.6125 16.857 25.7562 17.7141L23.1875 20.2856L26.3128 23.4141L28.8816 20.8427Z" fill="#1DA3DD"/>
<path d="M26.3116 23.7574L22.8652 20.3074L25.6052 17.5646C26.0548 17.1146 26.6755 16.8574 27.3391 16.8574C27.9813 16.8574 28.6021 17.1146 29.073 17.5646C29.5226 18.0146 29.7795 18.636 29.7795 19.3003C29.7795 19.9646 29.5226 20.5646 29.073 21.036L26.333 23.7789L26.3116 23.7574ZM23.5288 20.3074L26.333 23.0931L28.7305 20.6931C29.5012 19.9217 29.5012 18.6574 28.7305 17.886C27.9599 17.1146 26.697 17.1146 25.9477 17.886L23.5502 20.286L23.5288 20.3074Z" fill="#076790"/>
<mask id="mask0_557_26479" style="mask-type:luminance" maskUnits="userSpaceOnUse" x="18" y="14" width="15" height="15">
<path d="M29.1059 16.1263L30.4833 17.5051C32.784 19.8083 32.784 23.5358 30.4833 25.8389L29.8022 26.5208C27.123 29.2027 22.794 29.2027 20.1148 26.5208C17.4357 23.8388 17.4357 19.5052 20.1148 16.8233L20.796 16.1414C23.0967 13.8383 26.8203 13.8383 29.1211 16.1414L29.1059 16.1263Z" fill="white"/>
</mask>
<g mask="url(#mask0_557_26479)">
<path d="M19.1209 16.4473L16.5 19.0663L27.5551 30.1523L30.176 27.5333L19.1209 16.4473Z" fill="#1DA3DD"/>
<path d="M19.1147 17.8047L17.873 19.0467L27.557 28.7476L28.7987 27.5055L19.1147 17.8047Z" fill="#076790"/>
</g>
<path d="M24.9198 29.2004C23.507 29.2004 22.1798 28.6433 21.1738 27.6576L18.9475 25.429C16.8925 23.3718 16.8925 20.0076 18.9475 17.929L22.5866 14.2861L22.8434 14.5433L19.2044 18.1861C17.2778 20.1147 17.2778 23.2433 19.2044 25.1718L21.4306 27.4004C22.3725 28.3433 23.5927 28.8361 24.9198 28.8361C26.247 28.8361 27.4672 28.3218 28.4091 27.4004L30.6353 25.1718L30.8922 25.429L28.6659 27.6576C27.6598 28.6647 26.3327 29.2004 24.9198 29.2004Z" fill="#0C6792"/>
</svg>
