<svg width="64" height="14" viewBox="0 0 64 14" fill="none" xmlns="http://www.w3.org/2000/svg">
<path d="M34.14 10.77L34.16 11.1C34.37 10.84 34.65 10.72 34.99 10.72C35.59 10.72 35.89 11.06 35.9 11.74V13.63H35.26V11.78C35.26 11.6 35.22 11.46 35.14 11.38C35.06 11.29 34.93 11.25 34.76 11.25C34.5 11.25 34.31 11.37 34.18 11.6V13.64H33.54V10.78H34.15L34.14 10.77Z" fill="#0C6792"/>
<path d="M37.8104 13.68C37.4004 13.68 37.0704 13.55 36.8204 13.3C36.5704 13.04 36.4404 12.7 36.4404 12.28V12.2C36.4404 11.91 36.5004 11.66 36.6104 11.43C36.7204 11.21 36.8704 11.03 37.0704 10.91C37.2704 10.78 37.4904 10.72 37.7404 10.72C38.1304 10.72 38.4304 10.84 38.6404 11.09C38.8504 11.34 38.9604 11.69 38.9604 12.14V12.4H37.0904C37.1104 12.64 37.1904 12.82 37.3304 12.96C37.4704 13.1 37.6404 13.17 37.8504 13.17C38.1404 13.17 38.3804 13.05 38.5704 12.81L38.9204 13.14C38.8104 13.31 38.6504 13.44 38.4604 13.54C38.2704 13.63 38.0504 13.68 37.8204 13.68H37.8104ZM37.7404 11.23C37.5604 11.23 37.4204 11.29 37.3104 11.42C37.2004 11.54 37.1304 11.72 37.1004 11.94H38.3204V11.89C38.3104 11.68 38.2504 11.51 38.1504 11.4C38.0504 11.29 37.9104 11.23 37.7304 11.23H37.7404Z" fill="#0C6792"/>
<path d="M40.4802 11.71L41.0202 10.77H41.7302L40.8602 12.18L41.7602 13.63H41.0502L40.4802 12.65L39.9102 13.63H39.2002L40.1002 12.18L39.2302 10.77H39.9402L40.4702 11.71H40.4802Z" fill="#0C6792"/>
<path d="M42.9804 10.0698V10.7698H43.4804V11.2498H42.9804V12.8498C42.9804 12.9598 43.0004 13.0398 43.0404 13.0898C43.0804 13.1398 43.1604 13.1598 43.2704 13.1598C43.3404 13.1598 43.4204 13.1598 43.4904 13.1298V13.6298C43.3404 13.6698 43.2004 13.6898 43.0704 13.6898C42.5804 13.6898 42.3304 13.4198 42.3304 12.8698V11.2498H41.8604V10.7698H42.3304V10.0698H42.9704H42.9804Z" fill="#0C6792"/>
<path d="M45.3301 10.0199C45.3301 9.91992 45.3601 9.83992 45.4201 9.76992C45.4801 9.69992 45.5701 9.66992 45.6901 9.66992C45.8101 9.66992 45.9001 9.69992 45.9601 9.76992C46.0201 9.83992 46.0601 9.91992 46.0601 10.0199C46.0601 10.1199 46.0301 10.1999 45.9601 10.2599C45.9001 10.3199 45.8101 10.3599 45.6901 10.3599C45.5701 10.3599 45.4801 10.3299 45.4201 10.2599C45.3601 10.1999 45.3301 10.1199 45.3301 10.0199ZM46.0101 13.6199H45.3701V10.7599H46.0101V13.6199Z" fill="#0C6792"/>
<path d="M48.3103 12.85C48.3103 12.74 48.2603 12.65 48.1703 12.59C48.0803 12.53 47.9203 12.48 47.7003 12.43C47.4803 12.38 47.3003 12.33 47.1503 12.26C46.8303 12.11 46.6703 11.88 46.6703 11.59C46.6703 11.34 46.7703 11.14 46.9803 10.97C47.1903 10.8 47.4503 10.72 47.7703 10.72C48.1103 10.72 48.3903 10.8 48.6003 10.97C48.8103 11.14 48.9203 11.36 48.9203 11.63H48.2803C48.2803 11.51 48.2303 11.4 48.1403 11.32C48.0503 11.24 47.9303 11.2 47.7803 11.2C47.6403 11.2 47.5203 11.23 47.4403 11.3C47.3503 11.37 47.3103 11.45 47.3103 11.56C47.3103 11.66 47.3503 11.74 47.4303 11.79C47.5103 11.84 47.6803 11.9 47.9303 11.96C48.1803 12.02 48.3803 12.08 48.5203 12.16C48.6603 12.24 48.7703 12.33 48.8403 12.44C48.9103 12.55 48.9403 12.68 48.9403 12.83C48.9403 13.09 48.8303 13.3 48.6203 13.46C48.4103 13.62 48.1303 13.7 47.7803 13.7C47.5503 13.7 47.3403 13.66 47.1503 13.57C46.9703 13.49 46.8203 13.37 46.7203 13.22C46.6203 13.07 46.5703 12.91 46.5703 12.74H47.1903C47.1903 12.89 47.2603 13.01 47.3603 13.09C47.4703 13.17 47.6103 13.21 47.7803 13.21C47.9503 13.21 48.0803 13.18 48.1703 13.11C48.2603 13.05 48.3003 12.96 48.3003 12.86L48.3103 12.85Z" fill="#0C6792"/>
<path d="M51.4496 10.77L51.4696 11.1C51.6796 10.84 51.9596 10.72 52.2996 10.72C52.8996 10.72 53.1996 11.06 53.2096 11.74V13.63H52.5696V11.78C52.5696 11.6 52.5296 11.46 52.4496 11.38C52.3696 11.29 52.2396 11.25 52.0696 11.25C51.8096 11.25 51.6196 11.37 51.4896 11.6V13.64H50.8496V10.78H51.4596L51.4496 10.77Z" fill="#0C6792"/>
<path d="M53.7402 12.17C53.7402 11.89 53.8002 11.64 53.9102 11.41C54.0202 11.19 54.1802 11.01 54.3802 10.89C54.5802 10.77 54.8102 10.71 55.0702 10.71C55.4602 10.71 55.7702 10.83 56.0102 11.08C56.2502 11.33 56.3802 11.66 56.4002 12.07V12.22C56.4002 12.5 56.3502 12.75 56.2402 12.98C56.1302 13.2 55.9802 13.37 55.7702 13.5C55.5702 13.62 55.3402 13.68 55.0702 13.68C54.6702 13.68 54.3402 13.55 54.1002 13.28C53.8602 13.01 53.7402 12.65 53.7402 12.21V12.18V12.17ZM54.3802 12.22C54.3802 12.51 54.4402 12.74 54.5602 12.91C54.6802 13.08 54.8502 13.16 55.0702 13.16C55.2902 13.16 55.4602 13.08 55.5802 12.91C55.7002 12.74 55.7602 12.49 55.7602 12.17C55.7602 11.88 55.7002 11.65 55.5702 11.48C55.4502 11.31 55.2802 11.23 55.0602 11.23C54.8402 11.23 54.6802 11.31 54.5602 11.48C54.4402 11.65 54.3702 11.9 54.3702 12.23L54.3802 12.22Z" fill="#0C6792"/>
<path d="M59.46 12.74L59.91 10.77H60.54L59.76 13.63H59.23L58.62 11.67L58.02 13.63H57.49L56.71 10.77H57.34L57.8 12.72L58.39 10.77H58.87L59.46 12.74Z" fill="#0C6792"/>
<path d="M41.15 7.14L40.1 3.79H39.34L38.31 7.14L37.18 3.5H36.21L37.82 8.31H38.7L39.71 4.94L40.74 8.31H41.62L43.22 3.5H42.26L41.15 7.14Z" fill="#0C6792"/>
<path d="M45.9897 3.36011C44.3697 3.36011 43.4297 4.61011 43.4297 5.90011C43.4297 7.20011 44.3797 8.45011 45.9897 8.45011C47.5997 8.45011 48.5497 7.20011 48.5497 5.91011C48.5497 4.62011 47.5997 3.36011 45.9897 3.36011ZM45.9897 7.59011C45.0697 7.59011 44.3497 6.87011 44.3497 5.92011C44.3497 4.95011 45.0697 4.23011 45.9897 4.23011C46.9097 4.23011 47.6297 4.95011 47.6297 5.91011C47.6297 6.87011 46.9097 7.59011 45.9897 7.59011Z" fill="#0C6792"/>
<path d="M50.3602 4.21011V3.50011H49.4902V8.31011H50.4102V5.71011C50.4102 4.76011 50.8602 4.28011 51.7302 4.28011H51.7902V3.36011C51.1402 3.36011 50.6302 3.64011 50.3602 4.21011Z" fill="#0C6792"/>
<path d="M56.47 3.50002H55.35L53.47 5.40002V1.77002H52.54V8.31002H53.47V5.84002L55.46 8.31002H56.53L54.33 5.62002L56.47 3.50002Z" fill="#0C6792"/>
<path d="M58.8602 5.43011C58.3502 5.29011 58.0002 5.11011 57.9802 4.73011C57.9802 4.41011 58.2202 4.11011 58.6702 4.11011C59.1402 4.11011 59.3702 4.38011 59.3702 4.76011H60.2802C60.2102 3.69011 59.3402 3.36011 58.6802 3.36011C57.8002 3.36011 57.0602 3.91011 57.0602 4.82011C57.0602 5.54011 57.6002 5.86011 58.2702 6.07011C59.1302 6.35011 59.4902 6.51011 59.5002 6.99011C59.5002 7.40011 59.1502 7.71011 58.7102 7.71011C58.3702 7.71011 57.9002 7.52011 57.8602 6.93011H56.9502C56.9902 8.03011 57.9402 8.46011 58.7002 8.46011C59.6502 8.46011 60.4302 7.82011 60.4102 6.89011C60.3802 5.86011 59.5802 5.64011 58.8502 5.44011" fill="#0C6792"/>
<path d="M17.6096 4.41993C17.3896 3.95993 16.7796 3.42993 15.8196 3.42993C14.4196 3.42993 13.3496 4.50993 13.3496 5.97993C13.3496 7.31993 14.2696 8.52993 15.8196 8.52993C16.5796 8.52993 17.2696 8.18993 17.6096 7.54993V8.38993H18.5296V3.57993H17.6096V4.42993V4.41993ZM17.4596 6.70993C17.2196 7.25993 16.6996 7.65993 15.9696 7.65993C14.7996 7.65993 14.2996 6.70993 14.2896 5.98993C14.2896 5.07993 14.9396 4.27993 15.9496 4.27993C16.7196 4.27993 17.2596 4.70993 17.4896 5.26993C17.5996 5.48993 17.6396 5.73993 17.6296 5.98993C17.6296 6.23993 17.5696 6.48993 17.4596 6.70993Z" fill="#1DA3DD"/>
<path d="M29.4202 4.41993C29.2002 3.95993 28.5902 3.42993 27.6302 3.42993C26.2302 3.42993 25.1602 4.50993 25.1602 5.97993C25.1602 7.31993 26.0802 8.52993 27.6302 8.52993C28.3902 8.52993 29.0802 8.18993 29.4202 7.54993V8.38993H30.3402V3.57993H29.4202V4.42993V4.41993ZM29.2602 6.70993C29.0202 7.25993 28.5002 7.65993 27.7702 7.65993C26.6002 7.65993 26.1002 6.70993 26.0902 5.98993C26.0902 5.07993 26.7402 4.27993 27.7502 4.27993C28.5202 4.27993 29.0602 4.70993 29.2902 5.26993C29.4002 5.48993 29.4402 5.73993 29.4302 5.98993C29.4302 6.23993 29.3702 6.48993 29.2602 6.70993Z" fill="#1DA3DD"/>
<path d="M32.8203 1.84009H31.9003V3.57009H31.0303V4.29009H31.9003V8.38009H32.8203V4.29009H33.6903V3.57009H32.8203V1.84009Z" fill="#1DA3DD"/>
<path d="M35.3604 1.84009H34.4404V2.81009H35.3604V1.84009Z" fill="#1DA3DD"/>
<path d="M35.3604 3.57007H34.4404V8.38007H35.3604V3.57007Z" fill="#1DA3DD"/>
<path d="M24.2702 5.51007V3.57007H23.3502V6.12007C23.3502 6.94007 22.6802 7.61007 21.8602 7.61007C21.0402 7.61007 20.3702 6.94007 20.3702 6.12007V3.57007H19.4502V6.12007C19.4502 7.45007 20.5302 8.53007 21.8602 8.53007C22.4302 8.53007 22.9402 8.23007 23.3502 7.79007V8.51007C23.3502 9.47007 22.5702 10.2501 21.6102 10.2501H21.1902V11.1701H21.6102C23.0802 11.1701 24.2702 9.98007 24.2702 8.51007V5.82007H24.2502C24.2602 5.71007 24.2702 5.61007 24.2702 5.51007Z" fill="#1DA3DD"/>
<path d="M9.11667 3.05002L9.38537 3.31872C10.5592 4.49252 10.5592 6.40171 9.38537 7.57551L9.25102 7.70986C7.99944 8.96144 5.97712 8.96143 4.72554 7.70986C3.47396 6.45828 3.47396 4.43595 4.72554 3.18437L4.85989 3.05002C6.03369 1.87623 7.94288 1.87623 9.11667 3.05002Z" fill="#75BBE7"/>
<path d="M10.5301 6.10995L12.0101 0.449951L6.33008 1.88995" fill="white"/>
<path d="M10.6196 6.13007L10.4396 6.08007L11.8796 0.580069L6.34957 1.98007L6.30957 1.80007L12.1396 0.320068L10.6196 6.13007Z" fill="#0C6792"/>
<path d="M11.5605 2.17019L10.2705 0.890184L11.9705 0.440186L11.5605 2.17019Z" fill="#0C6792"/>
<path d="M10.2801 6.52001C10.6801 6.12001 10.6801 5.47001 10.2801 5.06001C9.88012 4.66001 9.22012 4.66001 8.82012 5.06001L7.62012 6.26001L9.08012 7.72001L10.2801 6.52001Z" fill="#75BBE7"/>
<path d="M9.07973 7.87016L7.46973 6.26016L8.73973 4.99016C8.95973 4.78016 9.23973 4.66016 9.53973 4.66016C9.83973 4.66016 10.1297 4.78016 10.3497 4.99016C10.5597 5.20016 10.6797 5.49016 10.6797 5.80016C10.6797 6.11016 10.5597 6.39016 10.3497 6.60016L9.06973 7.88016L9.07973 7.87016ZM7.76973 6.26016L9.06973 7.56016L10.1897 6.44016C10.3597 6.27016 10.4597 6.03016 10.4597 5.79016C10.4597 5.54016 10.3597 5.31016 10.1897 5.14016C9.82973 4.78016 9.24973 4.78016 8.88973 5.14016L7.76973 6.26016Z" fill="#076790"/>
<path d="M7.3602 3.6101C7.7602 3.2101 7.7602 2.5601 7.3602 2.1501C6.9602 1.7501 6.3002 1.7501 5.9002 2.1501L4.7002 3.3501L6.1602 4.8101L7.3602 3.6101Z" fill="#75BBE7"/>
<path d="M6.1598 4.95999L4.5498 3.34999L5.8298 2.06999C6.2698 1.62999 6.9998 1.62999 7.4398 2.06999C7.6498 2.27999 7.7698 2.56999 7.7698 2.87999C7.7698 3.18999 7.6498 3.46999 7.4398 3.67999L6.1598 4.95999ZM4.8598 3.34999L6.1598 4.64999L7.2798 3.52999C7.6398 3.16999 7.6398 2.57999 7.2798 2.21999C6.9198 1.85999 6.3398 1.85999 5.9798 2.21999L4.8598 3.33999V3.34999Z" fill="#076790"/>
<path d="M8.82016 5.06005C9.22016 4.66005 9.22016 4.00005 8.82016 3.60005C8.42016 3.20005 7.76016 3.20005 7.36016 3.60005L6.16016 4.80005L7.62016 6.26005L8.82016 5.06005Z" fill="#1DA3DD"/>
<path d="M7.61977 6.41995L6.00977 4.80995L7.28977 3.52995C7.49977 3.31995 7.78977 3.19995 8.09977 3.19995C8.39977 3.19995 8.68977 3.31995 8.90977 3.52995C9.11977 3.73995 9.23977 4.02995 9.23977 4.33995C9.23977 4.64995 9.11977 4.92995 8.90977 5.14995L7.62977 6.42995L7.61977 6.41995ZM6.31977 4.80995L7.62977 6.10995L8.74977 4.98995C9.10977 4.62995 9.10977 4.03995 8.74977 3.67995C8.38977 3.31995 7.79977 3.31995 7.44977 3.67995L6.32977 4.79995L6.31977 4.80995Z" fill="#076790"/>
<mask id="mask0_1025_884" style="mask-type:luminance" maskUnits="userSpaceOnUse" x="3" y="2" width="8" height="7">
<path d="M8.92575 2.8591L9.56922 3.50257C10.644 4.57737 10.644 6.31686 9.56922 7.39166L9.25102 7.70986C7.99944 8.96144 5.97712 8.96143 4.72554 7.70986C3.47396 6.45828 3.47396 4.43595 4.72554 3.18437L5.04374 2.86617C6.11854 1.79137 7.85802 1.79137 8.93282 2.86617L8.92575 2.8591Z" fill="white"/>
</mask>
<g mask="url(#mask0_1025_884)">
<path d="M4.26147 3.00873L3.03711 4.23096L8.20155 9.40442L9.42591 8.18219L4.26147 3.00873Z" fill="#1DA3DD"/>
<path d="M4.25874 3.6423L3.67871 4.22192L8.20262 8.74899L8.78265 8.16936L4.25874 3.6423Z" fill="#076790"/>
</g>
<path d="M6.96996 8.96C6.30996 8.96 5.68996 8.7 5.21996 8.24L4.17996 7.2C3.21996 6.24 3.21996 4.67 4.17996 3.7L5.87996 2L5.99996 2.12L4.29996 3.82C3.39996 4.72 3.39996 6.18 4.29996 7.08L5.33996 8.12C5.77996 8.56 6.34996 8.79 6.96996 8.79C7.58996 8.79 8.15996 8.55 8.59996 8.12L9.63996 7.08L9.75996 7.2L8.71996 8.24C8.24996 8.71 7.62996 8.96 6.96996 8.96Z" fill="#0C6792"/>
</svg>
